<?xml version="1.0" encoding="UTF-8" standalone="no"?>
<!-- Created with Inkscape (http://www.inkscape.org/) -->

<svg
   xmlns:dc="http://purl.org/dc/elements/1.1/"
   xmlns:cc="http://creativecommons.org/ns#"
   xmlns:rdf="http://www.w3.org/1999/02/22-rdf-syntax-ns#"
   xmlns:svg="http://www.w3.org/2000/svg"
   xmlns="http://www.w3.org/2000/svg"
   xmlns:sodipodi="http://sodipodi.sourceforge.net/DTD/sodipodi-0.dtd"
   xmlns:inkscape="http://www.inkscape.org/namespaces/inkscape"
   width="210mm"
   height="297mm"
   viewBox="0 0 744.09448819 1052.3622047"
   id="svg2"
   version="1.1"
   inkscape:version="0.91 r13725"
   sodipodi:docname="logo.svg"
   enable-background="new">
  <defs
     id="defs4" />
  <sodipodi:namedview
     id="base"
     pagecolor="#ffffff"
     bordercolor="#666666"
     borderopacity="1.0"
     inkscape:pageopacity="0.0"
     inkscape:pageshadow="2"
     inkscape:zoom="0.35"
     inkscape:cx="305.36744"
     inkscape:cy="525.91018"
     inkscape:document-units="px"
     inkscape:current-layer="layer2"
     showgrid="false"
     inkscape:snap-bbox="true"
     inkscape:window-width="1366"
     inkscape:window-height="745"
     inkscape:window-x="-8"
     inkscape:window-y="-8"
     inkscape:window-maximized="1"
     inkscape:snap-midpoints="false"
     inkscape:snap-others="false"
     inkscape:object-paths="false"
     inkscape:snap-intersection-paths="false"
     inkscape:bbox-paths="false" />
  <metadata
     id="metadata7">
    <rdf:RDF>
      <cc:Work
         rdf:about="">
        <dc:format>image/svg+xml</dc:format>
        <dc:type
           rdf:resource="http://purl.org/dc/dcmitype/StillImage" />
      </cc:Work>
    </rdf:RDF>
  </metadata>
  <g
     inkscape:groupmode="layer"
     id="layer2"
     inkscape:label="Layer 2"
     style="display:inline;opacity:1">
    <path
       style="display:inline;fill:#7fff2a;fill-rule:evenodd;stroke:#000000;stroke-width:0.89306843px;stroke-linecap:butt;stroke-linejoin:miter;stroke-opacity:1"
       d="m -0.0634912,605.87852 c 0,0 218.0185312,-138.44696 355.7143512,-52.20132 137.69594,86.24565 384.40102,-38.58357 384.40102,-38.58357 l 2.86871,537.90037 -734.3780955,2.2698 z"
       id="path5058"
       inkscape:connector-curvature="0" />
    <path
       style="fill:#d5fff6;fill-rule:evenodd;stroke:#000000;stroke-width:1px;stroke-linecap:butt;stroke-linejoin:miter;stroke-opacity:1"
       d="m -2.8571428,606.64792 c 0,0 214.2857128,-137.14286 382.8571428,-42.85715 168.57143,94.28572 357.14285,-45.71428 357.14285,-45.71428 L 742.85714,6.6479191 2.8571429,3.7907762 Z"
       id="path5081"
       inkscape:connector-curvature="0" />
    <path
       style="fill:#ffffff;fill-rule:evenodd;stroke:#000000;stroke-width:1px;stroke-linecap:butt;stroke-linejoin:miter;stroke-opacity:1"
       d="m 62.857143,95.219348 c 0,4.761904 0,9.523812 0,14.285712 0,6.70051 0.673435,-1.34687 -2.857143,5.71429 -0.425918,0.85183 0,1.90476 0,2.85714 0,0.95238 0,1.90476 0,2.85714 0,0.95238 0,1.90477 0,2.85715 0,0.95238 -0.425918,2.0053 0,2.85714 0.602339,1.20468 1.904762,1.90476 2.857143,2.85714 0.952381,0.95238 1.652466,2.25481 2.857143,2.85714 0.851835,0.42592 1.904762,0 2.857143,0 1.904761,0 3.809523,0 5.714285,0 4.761905,0 9.52381,0 14.285715,0 1.904761,0 3.809523,0 5.714285,0 0.952381,0 2.183708,0.67344 2.857143,0 0.673435,-0.67343 -0.673435,-2.1837 0,-2.85714 0.673435,-0.67343 2.183708,0.67344 2.857143,0 0.67344,-0.67343 0,-1.90476 0,-2.85714 0,-0.95238 0,-1.90476 0,-2.85714 0,-0.95238 -0.673435,-2.18371 0,-2.85715 0.67344,-0.67343 2.85714,-0.95238 2.85714,0 0,4.04762 -13.33333,-8.09523 2.85715,0 0.85183,0.42592 -0.42592,2.00531 0,2.85715 0.60233,1.20467 1.65246,2.2548 2.85714,2.85714 0.85183,0.42592 2.00531,-0.42592 2.85714,0 13.07602,6.53801 -12.124046,-1.18421 8.57143,5.71428 0.61515,0.20506 5.28892,-0.21268 5.71429,0 1.20467,0.60234 1.57939,2.43123 2.85714,2.85715 1.80701,0.60234 3.86639,-0.46198 5.71428,0 0.23151,0.0579 11.0848,5.59969 11.42858,5.71428 0.9035,0.30117 1.90476,0 2.85714,0 1.90476,0 3.80952,0 5.71428,0 4.76191,0 9.52381,0 14.28572,0 3.80952,0 7.61905,0 11.42857,0 0.95238,0 2.18371,0.67344 2.85714,0 0.67344,-0.67343 -0.67343,-2.1837 0,-2.85714 0.67344,-0.67343 1.90476,0 2.85715,0 0,-1.90476 -0.85184,-4.01061 0,-5.71429 0.42591,-0.85183 2.1837,0.67344 2.85714,0 0.67343,-0.67343 0,-1.90476 0,-2.85714 0,-0.95238 0,-1.90476 0,-2.85714 0,-1.90476 0,-3.80952 0,-5.71429 0,-0.95238 0,-3.80952 0,-2.85714 0,1.90476 0,3.80952 0,5.71429 0,0.95238 -0.95238,-2.85715 0,-2.85715 0.95238,0 0,1.90477 0,2.85715 0,0.95238 0,1.90476 0,2.85714 0,0.95238 0,1.90476 0,2.85714 0,0.95238 -0.67344,2.18371 0,2.85714 0.66516,0.66517 4.52242,-0.59593 5.71428,0 1.20468,0.60234 1.65247,2.25481 2.85715,2.85715 0.85183,0.42592 1.90476,0 2.85714,0 1.90476,0 3.80952,0 5.71429,0 5.71428,0 11.42857,0 17.14285,0 3.80953,0 7.61905,0 11.42857,0 1.90477,0 3.8664,0.46197 5.71429,0 2.066,-0.5165 3.64828,-2.34064 5.71429,-2.85715 1.84789,-0.46197 4.01061,0.85184 5.71428,0 0.85184,-0.42591 -0.42592,-2.0053 0,-2.85714 0.60234,-1.20468 1.90476,-1.90476 2.85714,-2.85714 0.95239,-0.95238 1.90477,-1.90476 2.85715,-2.85714 0.95238,-0.95238 2.2548,-1.65247 2.85714,-2.85715 0.42592,-0.85183 -0.85184,-2.43122 0,-2.85714 1.70367,-0.85183 3.80952,0 5.71429,0 1.90476,0 3.86639,-0.46197 5.71428,0 2.06601,0.5165 3.64828,2.34064 5.71429,2.85714 1.84789,0.46198 3.86639,-0.46197 5.71428,0 2.06601,0.5165 3.62606,2.4395 5.71429,2.85715 2.80166,0.56033 5.71428,0 8.57143,0 3.80952,0 7.61904,0 11.42857,0 2.85714,0 5.71428,0 8.57143,0 0.95238,0 2.0053,0.42591 2.85714,0 1.20468,-0.60234 1.90476,-1.90477 2.85714,-2.85715 0.95238,-0.95238 2.25481,-1.65246 2.85715,-2.85714 0.42591,-0.85183 -0.30117,-1.95363 0,-2.85714 0.67343,-2.02031 2.1837,-3.69398 2.85714,-5.71429 0.30117,-0.90351 0,-1.90476 0,-2.85714 0,-0.95238 0,-1.90476 0,-2.85714 0,-2.85715 0,-5.71429 0,-8.571432 0,-2.857143 0,-5.714286 0,-8.571429 0,-0.952381 0.42592,-2.005307 0,-2.857143 -0.60234,-1.204677 -1.57939,-2.431225 -2.85714,-2.857143 -1.80702,-0.602338 -3.80953,0 -5.71429,0 -4.7619,0 -9.52381,0 -14.28571,0 -0.95239,0 -2.18371,-0.673435 -2.85715,0 -0.67343,0.673435 -0.67343,2.183708 0,2.857143 0.67344,0.673435 2.18371,0.673435 2.85715,0 0.67343,-0.673435 -0.42592,-2.005307 0,-2.857143 0.60233,-1.204677 2.2548,-1.652465 2.85714,-2.857143 0.42592,-0.851835 -0.42592,-2.005307 0,-2.857142 0.60234,-1.204678 2.2548,-1.652466 2.85714,-2.857143 0.42592,-0.851836 0,-1.904762 0,-2.857143 0,-1.92698 0,-3.787306 0,-5.714286 0,-1.904762 0,-3.809524 0,-5.714286 0,-0.952381 0.42592,-2.005307 0,-2.857142 -0.60234,-1.204678 -2.2548,-1.652466 -2.85714,-2.857143 -0.42592,-0.851836 0.42592,-2.005308 0,-2.857143 -0.60234,-1.204677 -1.90476,-1.904762 -2.85714,-2.857143 -0.95239,-0.952381 -1.65247,-2.254804 -2.85715,-2.857143 -0.85183,-0.425918 -1.90476,0 -2.85714,0 -0.95238,0 -1.90476,0 -2.85714,0 -0.95238,0 -2.00531,0.425918 -2.85715,0 -1.20467,-0.602338 -1.65246,-2.254804 -2.85714,-2.857143 -0.85183,-0.425917 -1.90476,0 -2.85714,0 -0.95238,0 -1.90476,0 -2.85714,0 -4.76191,0 -9.52381,0 -14.28572,0 -2.85714,0 -5.71428,0 -8.57143,0 -0.95238,0 -2.1837,0.673435 -2.85714,0 -0.67344,-0.673435 0,-1.904762 0,-2.857143 0,-1.92698 0,-3.787305 0,-5.714285 0,-0.952381 0.42592,-2.005308 0,-2.857143 -0.60234,-1.204677 -1.90476,-1.904762 -2.85714,-2.857143 -0.95238,-0.952381 -1.65247,-2.254804 -2.85715,-2.857143 -0.85183,-0.425918 -1.90476,0 -2.85714,0 -1.90476,0 -3.80952,0 -5.71428,0 -4.76191,0 -9.52381,0 -14.28572,0 -4.7619,0 -9.52381,0 -14.28571,0 -1.90476,0 -3.80953,0 -5.71429,0 -0.95238,0 -1.95363,-0.301169 -2.85714,0 -2.02031,0.673435 -3.69398,2.183708 -5.71429,2.857143 -0.90351,0.301169 -1.90476,0 -2.85714,0 -0.95238,0 -2.18371,-0.673435 -2.85714,0 -0.67344,0.673435 0.67343,2.183708 0,2.857143 -0.67344,0.673435 -2.18371,-0.673435 -2.85715,0 -0.67343,0.673435 0,1.904762 0,2.857143 0,3.809524 0,7.619047 0,11.428571 0,0.952381 0,1.904762 0,2.857143 0,0.952381 0.95239,2.857143 0,2.857143 -0.95238,0 0,-1.904762 0,-2.857143 0,-0.952381 0,-1.904762 0,-2.857143 0,-2.955765 0.67344,-3.948997 -2.85714,-5.714286 -0.85183,-0.425917 -1.95363,0.30117 -2.85714,0 -2.02031,-0.673435 -3.64828,-2.340641 -5.71429,-2.857142 -1.84789,-0.461973 -3.80952,0 -5.71428,0 -2.85715,0 -5.76977,0.560331 -8.57143,0 -2.08823,-0.417647 -3.61367,-2.507041 -5.71429,-2.857143 -3.75769,-0.626282 -7.61904,0 -11.42857,0 -8.57143,0 -17.14286,0 -25.71428,0 -0.95239,0 -1.90477,0 -2.85715,0 -0.95238,0 -2.1837,-0.673435 -2.85714,0 -0.67344,0.673435 0.42592,2.005307 0,2.857143 -1.20468,2.409354 -4.50961,3.304931 -5.71429,5.714285 -0.42591,0.851836 0,1.904762 0,2.857143 0,0.952381 0,1.904762 0,2.857143 0,0.952381 0.67344,2.183708 0,2.857143 -0.67343,0.673435 -1.90476,0 -2.85714,0 -1.90476,0 -3.80952,0 -5.71428,0 -5.07937,0 -5.768758,-1.34687 -8.571433,2.857143 -1.181283,1.771925 -1.351296,4.208439 -2.857143,5.714285 -0.673435,0.673435 -2.183708,-0.673435 -2.857143,0 -0.673435,0.673435 0.425918,2.005308 0,2.857143 -0.602338,1.204677 -2.254804,1.652466 -2.857142,2.857143 -0.425918,0.851836 0,1.904762 0,2.857143 0,0.952381 0.952381,2.857143 0,2.857143 -0.952381,0 0.673435,-2.183708 0,-2.857143 -0.673435,-0.673435 -1.904762,0 -2.857143,0 -1.904762,0 -3.809524,0 -5.714286,0 -0.952381,0 -2.005307,-0.425918 -2.857143,0 -1.204677,0.602339 -1.652466,2.254804 -2.857143,2.857143 -0.851835,0.425918 -2.005307,-0.425918 -2.857143,0 -1.204677,0.602338 -1.652465,2.254804 -2.857142,2.857143 -0.851836,0.425917 -2.183708,-0.673435 -2.857143,0 -0.673435,0.673435 0,1.904762 0,2.857143 0,1.90485 0,3.809435 0,5.714285 0,6.78391 0.230986,1.933198 -2.857143,14.285715 z"
       id="path5093"
       inkscape:connector-curvature="0" />
    <path
       style="fill:#ffffff;fill-rule:evenodd;stroke:#000000;stroke-width:1px;stroke-linecap:butt;stroke-linejoin:miter;stroke-opacity:1"
       d="m 462.85714,109.50506 c -9.6536,12.45706 -8.57143,7.44058 -8.57143,17.14286 0,0.95238 -0.67343,2.18371 0,2.85714 1.50585,1.50585 3.80953,1.90476 5.71429,2.85714 1.90476,0.95239 3.62605,2.4395 5.71429,2.85715 2.80165,0.56033 5.75316,-0.46971 8.57142,0 2.97072,0.49512 5.60072,2.36202 8.57143,2.85714 2.81827,0.46971 5.71429,0 8.57143,0 1.90476,0 3.80953,0 5.71429,0 3.80952,0 7.61904,0 11.42857,0 0.95238,0 2.18371,0.67344 2.85714,0 0.67344,-0.67343 0,-1.90476 0,-2.85714 0,-1.90476 0,-3.80953 0,-5.71429 0,-0.95238 0.67344,-2.18371 0,-2.85714 -0.67343,-0.67344 -2.18371,-0.67344 -2.85714,0 -1.50585,1.50585 -1.67586,3.94236 -2.85714,5.71428 -0.74711,1.12067 -2.25481,1.65247 -2.85715,2.85715 -0.42591,0.85183 0.42592,2.00531 0,2.85714 -3.53058,7.06116 -2.85714,-0.98622 -2.85714,5.71429 0,0.95238 -0.67344,2.1837 0,2.85714 0.67344,0.67343 1.90476,0 2.85714,0 1.90476,0 3.80953,0 5.71429,0 6.66667,0 13.33333,0 20,0 1.90476,0 3.80952,0 5.71428,0 1.90477,0 3.84652,-0.37356 5.71429,0 2.95321,0.59064 5.77514,1.73863 8.57143,2.85714 7.61905,3.04762 4.80976,3.8191 14.28571,5.71429 1.86778,0.37355 3.80953,0 5.71429,0 5.71428,0 11.42857,0 17.14286,0 2.85714,0 5.71428,0 8.57142,0 0.95239,0 2.06472,0.52828 2.85715,0 2.24132,-1.49422 3.80952,-3.80953 5.71428,-5.71429 0.95238,-0.95238 1.65247,-2.2548 2.85715,-2.85714 0.85183,-0.42592 2.1837,0.67343 2.85714,0 0.67343,-0.67344 -0.42592,-2.00531 0,-2.85714 9.47595,-9.47595 -1.34687,2.69374 2.85714,-5.71429 0.60234,-1.20468 2.25481,-1.65247 2.85714,-2.85714 0.42592,-0.85184 -0.67343,-2.18371 0,-2.85715 0.67344,-0.67343 1.90477,0 2.85715,0 2.85714,0 5.71428,0 8.57143,0 0.95238,0 2.06471,0.52829 2.85714,0 2.24133,-1.49421 3.80952,-3.80952 5.71428,-5.71428 0.95239,-0.95238 1.65247,-2.25481 2.85715,-2.85714 0.85183,-0.42592 2.1837,0.67343 2.85714,0 0.67344,-0.67344 -0.30117,-1.95364 0,-2.85715 0.67344,-2.0203 2.34064,-3.64828 2.85714,-5.71428 0.46198,-1.84789 0,-3.80953 0,-5.71429 0,-3.80952 0,-7.61905 0,-11.42857 0,-0.952381 -0.67343,-2.183707 0,-2.857142 0.67344,-0.673435 1.90476,0 2.85715,0 1.90476,0 3.80952,0 5.71428,0 0.95238,0 2.00531,0.425917 2.85714,0 3.27548,-1.63774 3.97431,-5.961465 5.71429,-8.571429 0.74711,-1.120664 2.43123,-1.57939 2.85714,-2.857143 0.60234,-1.807016 -0.46197,-3.866395 0,-5.714286 0.5165,-2.066004 2.18371,-3.69398 2.85715,-5.714285 0.30117,-0.903508 0,-1.904762 0,-2.857143 0,-0.952381 0,-1.904762 0,-2.857143 0,-2.857143 0,-5.714286 0,-8.571429 0,-1.92698 0,-3.787305 0,-5.714285 0,-0.952381 0.42591,-2.005308 0,-2.857143 -0.60234,-1.204677 -1.90477,-1.904762 -2.85715,-2.857143 -4.36299,-4.362989 -1.65246,-2.254804 -8.57143,-5.714286 -1.90476,-0.952381 -3.64828,-2.340641 -5.71428,-2.857143 -1.84789,-0.461972 -3.8664,0.461973 -5.71429,0 -2.066,-0.516501 -3.69398,-2.183707 -5.71428,-2.857142 -0.90351,-0.30117 -1.90476,0 -2.85715,0 -0.95238,0 -1.90476,0 -2.85714,0 -0.95238,0 -2.18371,-0.673435 -2.85714,0 -1.24042,1.240417 2.59686,8.441289 -2.85714,5.714285 -1.20468,-0.602338 -1.65247,-2.254804 -2.85715,-2.857143 -0.85183,-0.425917 -2.0053,0.425918 -2.85714,0 -7.2587,-3.629351 2.92606,-3.414788 -8.57143,-5.714285 -2.80166,-0.560332 -5.71428,0 -8.57143,0 -1.90476,0 -3.80952,0 -5.71428,0 -8.57143,0 -17.14286,0 -25.71429,0 -4.7619,0 -9.52381,0 -14.28571,0 -0.95238,0 -2.00531,-0.425918 -2.85715,0 -1.20467,0.602338 -1.90476,1.904762 -2.85714,2.857143 -0.95238,0.952381 -1.90476,1.904761 -2.85714,2.857142 -0.95238,0.952381 -2.25481,1.652466 -2.85714,2.857143 -0.77005,1.540099 0.77005,4.174187 0,5.714286 -0.60234,1.204677 -2.25481,1.652466 -2.85715,2.857143 -0.59593,1.191864 0.66516,5.049125 0,5.714286 -2.29925,2.299251 -4.87745,-2.578197 -5.71428,-2.857143 -1.80702,-0.602339 -3.80953,0 -5.71429,0 -4.7619,0 -9.52381,0 -14.28571,0 -5.71429,0 -11.42857,0 -17.14286,0 -1.90476,0 -3.90727,-0.602339 -5.71429,0 -1.27775,0.425917 -1.90476,1.904762 -2.85714,2.857143 -12.35797,12.357973 -0.44779,-0.756889 -8.57143,11.428571 -0.74711,1.120664 -2.2548,1.652466 -2.85714,2.857143 -0.29868,0.597359 0.28855,8.571428 0,8.571428 -1.34687,0 -1.65247,-2.254804 -2.85714,-2.857142 -0.85184,-0.425918 -1.90476,0 -2.85715,0 -1.90476,0 -3.90727,-0.602339 -5.71428,0 -1.27775,0.425917 -2.11004,1.736479 -2.85714,2.857142 -3.28306,4.924591 -2.85715,4.318812 -2.85715,8.571429 0,1.904762 0,3.809524 0,5.714286 0,0.952381 0.42592,2.005307 0,2.857143 C 462.2548,96.424025 460,96.72962 460,98.07649 c 0,3.92677 1.90476,7.61905 2.85714,11.42857 z"
       id="path5097"
       inkscape:connector-curvature="0" />
  </g>
  <g
     inkscape:label="Layer 1"
     inkscape:groupmode="layer"
     id="layer1"
     style="display:inline">
    <rect
       style="fill:#00ffff"
       id="rect3378"
       width="365.71429"
       height="474.28571"
       x="288.57144"
       y="492.36221" />
    <path
       style="fill:#00ffff;fill-rule:evenodd;stroke:#000000;stroke-width:1px;stroke-linecap:butt;stroke-linejoin:miter;stroke-opacity:1"
       d="m 288.57143,495.21935 c 362.85714,0 357.14286,-31.42857 357.14286,-31.42857 l 2.85714,57.14285"
       id="path3392"
       inkscape:connector-curvature="0" />
    <path
       style="fill:#00ffff;fill-rule:evenodd;stroke:#000000;stroke-width:1px;stroke-linecap:butt;stroke-linejoin:miter;stroke-opacity:1"
       d="m 645.71429,486.64792 c -354.28572,8.57143 -360,-22.85714 -360,-22.85714 l 0,65.71428"
       id="path3394"
       inkscape:connector-curvature="0" />
    <path
       style="fill:#ffffff;fill-rule:evenodd;stroke:#000000;stroke-width:0.98998594px;stroke-linecap:butt;stroke-linejoin:miter;stroke-opacity:1"
       d="m 282.85177,427.27 0,-246.41086 57.14455,53.20235 242.86434,-2.80012 57.14455,-53.20235 5.71446,280.01234"
       id="path3396"
       inkscape:connector-curvature="0" />
    <path
       style="fill:none;fill-rule:evenodd;stroke:#000000;stroke-width:1px;stroke-linecap:butt;stroke-linejoin:miter;stroke-opacity:1"
       d="m 342.85714,235.21935 c 0,0 14.28572,-68.57143 -62.85714,-48.57143"
       id="path3402"
       inkscape:connector-curvature="0" />
    <path
       style="fill:none;fill-rule:evenodd;stroke:#000000;stroke-width:1px;stroke-linecap:butt;stroke-linejoin:miter;stroke-opacity:1"
       d="m 585.71429,232.3622 c 0,0 -5.71429,-74.28571 51.42857,-48.57142"
       id="path3406"
       inkscape:connector-curvature="0" />
    <path
       style="fill:none;fill-rule:evenodd;stroke:#000000;stroke-width:1px;stroke-linecap:butt;stroke-linejoin:miter;stroke-opacity:1"
       d="m 282.85714,186.64792 0,288.57143 0,-8.57143"
       id="path3448"
       inkscape:connector-curvature="0" />
    <path
       style="fill:none;fill-rule:evenodd;stroke:#000000;stroke-width:1px;stroke-linecap:butt;stroke-linejoin:miter;stroke-opacity:1"
       d="m 642.85714,180.93363 0,311.42857"
       id="path3450"
       inkscape:connector-curvature="0" />
    <path
       style="fill:none;fill-rule:evenodd;stroke:#000000;stroke-width:1px;stroke-linecap:butt;stroke-linejoin:miter;stroke-opacity:1"
       d="m 342.85714,238.07649 242.85715,-8.57143"
       id="path3452"
       inkscape:connector-curvature="0" />
    <path
       style="fill:#ffffff;stroke:#ffffff;stroke-width:2.85714293"
       d="m 315.93887,208.71121 -24.28571,-22.58204 14.61469,-0.12429 c 22.54187,-0.1917 37.13068,15.08797 34.87732,36.52896 l -0.92058,8.75942 -24.28572,-22.58205 z"
       id="path3454"
       inkscape:connector-curvature="0" />
    <path
       style="fill:none;fill-rule:evenodd;stroke:#000000;stroke-width:1px;stroke-linecap:butt;stroke-linejoin:miter;stroke-opacity:1"
       d="m 325.71429,360.93363 c 0,0 0,-2.85714 0,0 z"
       id="path4266"
       inkscape:connector-curvature="0" />
    <path
       style="fill:none;fill-rule:evenodd;stroke:#000000;stroke-width:1px;stroke-linecap:butt;stroke-linejoin:miter;stroke-opacity:1"
       d="m 340,349.50506 c 0,0 -40,-80 125.71429,-80 165.71428,0 137.14285,77.14286 137.14285,77.14286 0,0 11.42857,105.71428 -125.71428,105.71428 C 340,452.3622 340,349.50506 340,349.50506 Z"
       id="path4268"
       inkscape:connector-curvature="0" />
    <path
       style="fill:none;fill-rule:evenodd;stroke:#000000;stroke-width:1px;stroke-linecap:butt;stroke-linejoin:miter;stroke-opacity:1"
       d="m 420,380.93363 c 0,0 157.14286,28.57143 131.42857,-8.57143"
       id="path4270"
       inkscape:connector-curvature="0" />
    <path
       style="fill:none;fill-rule:evenodd;stroke:#000000;stroke-width:1px;stroke-linecap:butt;stroke-linejoin:miter;stroke-opacity:1"
       d="m 388.57143,352.3622 c 0,0 62.85714,34.28572 2.85714,54.28572"
       id="path4276"
       inkscape:connector-curvature="0" />
    <path
       style="fill:none;fill-rule:evenodd;stroke:#000000;stroke-width:1px;stroke-linecap:butt;stroke-linejoin:miter;stroke-opacity:1"
       d="m 420,378.07649 c 0,0 171.42857,102.85714 128.57143,-5.71429"
       id="path4278"
       inkscape:connector-curvature="0" />
    <path
       style="fill:none;fill-rule:evenodd;stroke:#000000;stroke-width:1px;stroke-linecap:butt;stroke-linejoin:miter;stroke-opacity:1"
       d="m 554.28571,343.79078 c 0,0 -20,65.71428 31.42858,45.71428"
       id="path4286"
       inkscape:connector-curvature="0" />
    <path
       style="fill:none;fill-rule:evenodd;stroke:#000000;stroke-width:1px;stroke-linecap:butt;stroke-linejoin:miter;stroke-opacity:1"
       d="m 517.14286,415.21935 c 0,0 11.42857,-20 37.14285,-17.14286"
       id="path4288"
       inkscape:connector-curvature="0" />
    <path
       style="fill:#00ff00;fill-rule:evenodd;stroke:#000000;stroke-width:1px;stroke-linecap:butt;stroke-linejoin:miter;stroke-opacity:1"
       d="m 282.85714,460.93363 c 0,0 -91.42857,148.57143 2.85715,182.85715"
       id="path4294"
       inkscape:connector-curvature="0" />
    <path
       style="fill:#ffe680;fill-rule:evenodd;stroke:#000000;stroke-width:1px;stroke-linecap:butt;stroke-linejoin:miter;stroke-opacity:1"
       d="m 277.14286,463.79078 c 0,0 -111.42857,220 -128.57143,114.28571 -17.14286,-105.71429 -14.28572,-240 -14.28572,-240 l -62.857139,2.85714 c 0,0 11.428572,308.57143 25.714286,314.28572 14.285713,5.71428 40.000003,40 62.857143,25.71428 22.85714,-14.28571 91.42857,-57.14285 91.42857,-57.14285 0,0 -31.42857,-48.57143 25.71429,-160 z"
       id="path4308"
       inkscape:connector-curvature="0" />
    <path
       style="fill:#ffe680;fill-rule:evenodd;stroke:#000000;stroke-width:1px;stroke-linecap:butt;stroke-linejoin:miter;stroke-opacity:1"
       d="m 642.85714,486.64792 c 0,0 68.57143,-22.85714 74.28572,2.85714 5.71428,25.71429 25.71428,377.14286 25.71428,377.14286 L 680,863.79078 648.57143,589.50506 Z"
       id="path4310"
       inkscape:connector-curvature="0" />
    <path
       style="fill:none;fill-rule:evenodd;stroke:#000000;stroke-width:1px;stroke-linecap:butt;stroke-linejoin:miter;stroke-opacity:1"
       d="m 131.42857,366.64792 c -1.4601,-17.24629 10.85186,0.57671 14.28572,-2.85714 0.67343,-0.67344 -0.67344,-2.18371 0,-2.85715 1.34687,-1.34687 4.36741,1.34687 5.71428,0 0.67344,-0.67343 -0.67343,-2.1837 0,-2.85714 0.67344,-0.67343 2.18371,0.67344 2.85714,0 0.67344,-0.67343 -0.67343,-2.18371 0,-2.85714 1.34687,-1.34687 4.36742,1.34687 5.71429,0 0.67344,-0.67344 -0.67344,-2.18371 0,-2.85715 0.67344,-0.67343 2.00531,0.42592 2.85714,0 3.17481,-1.5874 2.53949,-4.12688 5.71429,-5.71428 0.85183,-0.42592 2.18371,0.67343 2.85714,0 1.34687,-1.34687 -1.34687,-4.36742 0,-5.71429 0.67344,-0.67343 2.18371,0.67344 2.85714,0 0.67344,-0.67343 -0.42591,-2.0053 0,-2.85714 0.60234,-1.20468 2.25481,-1.65247 2.85715,-2.85714 0.51662,-1.03324 0,-12.29846 0,-14.28572 0,-2.02515 0.36936,-16.40414 0,-17.14285 -5.94537,-11.89075 0.19724,3.05438 -5.71429,-2.85715 -0.67343,-0.67343 0.67344,-2.1837 0,-2.85714 -1.34687,-1.34687 -4.36741,1.34687 -5.71428,0 -0.67344,-0.67343 0.67343,-2.18371 0,-2.85714 -0.0919,-0.0919 -7.8785,0 -8.57143,0 -0.95238,0 -2.18371,-0.67344 -2.85715,0 -0.12949,0.12949 0,12.93858 0,14.28571 0,0.95238 -0.67343,2.18371 0,2.85714 0.67344,0.67344 2.18371,-0.67343 2.85715,0 0.67343,0.67344 0,1.90477 0,2.85715 0,0.95238 0,1.90476 0,2.85714 0,0.69293 0.0919,8.47954 0,8.57143 -0.67344,0.67343 -2.18371,-0.67344 -2.85715,0 -0.67343,0.67343 0.42592,2.00531 0,2.85714 -0.3793,0.7586 -7.81282,8.19213 -8.57142,8.57143 -0.85184,0.42592 -2.00531,-0.42592 -2.85715,0 -1.20467,0.60234 -1.65246,2.2548 -2.85714,2.85714 -1.70367,0.85184 -4.36742,-1.34687 -5.71429,0 -3.80952,3.80953 4.76191,2.85715 -2.85714,2.85715"
       id="path4336"
       inkscape:connector-curvature="0" />
    <path
       style="fill:none;fill-rule:evenodd;stroke:#000000;stroke-width:1px;stroke-linecap:butt;stroke-linejoin:miter;stroke-opacity:1"
       d="m 125.71429,335.21935 c -3.88904,-7.36322 9.07854,-12.4428 11.42857,-17.14286 0.42591,-0.85183 -0.67344,-2.18371 0,-2.85714 0.67343,-0.67344 2.0053,0.42592 2.85714,0 1.20468,-0.60234 1.65247,-2.25481 2.85714,-2.85715 0.85184,-0.42591 2.18371,0.67344 2.85715,0 0.67343,-0.67343 -0.67344,-2.1837 0,-2.85714 0.67343,-0.67343 2.1837,0.67344 2.85714,0 0.67343,-0.67343 -0.67344,-2.18371 0,-2.85714 5.91153,-5.91153 -0.23109,9.0336 5.71428,-2.85714 0.42592,-0.85184 -0.67343,-2.18371 0,-2.85715 0.88471,-0.8847 13.40101,0.88471 14.28572,0 0.67343,-0.67343 -0.67344,-2.1837 0,-2.85714 0.67343,-0.67343 2.18371,0.67344 2.85714,0 0.67344,-0.67343 0,-1.90476 0,-2.85714 0,-0.95238 0,-1.90476 0,-2.85715 0,-0.95238 0,-3.80952 0,-2.85714 0,0.67108 0,19.46515 0,-2.85714 0,-0.95238 0,-1.90476 0,-2.85714 0,-0.95238 0.67344,-2.18371 0,-2.85715 -0.0919,-0.0919 -7.87849,0 -8.57143,0 -1.34713,0 -14.15622,-0.12949 -14.28571,0 -0.67344,0.67344 0.67343,2.18371 0,2.85715 -1.42857,1.42857 -7.14286,-1.42858 -8.57143,0 -0.67344,0.67343 0.67344,2.1837 0,2.85714 -0.67344,0.67343 -2.18371,-0.67344 -2.85714,0 -5.91153,5.91153 9.0336,-0.23109 -2.85715,5.71428 -0.85183,0.42592 -2.1837,-0.67343 -2.85714,0 -1.34687,1.34687 1.34687,4.36742 0,5.71429 -0.67343,0.67344 -2.18371,-0.67343 -2.85714,0 -0.67344,0.67344 0.67343,2.18371 0,2.85714 -0.67344,0.67344 -2.18371,-0.67343 -2.85714,0 -0.95782,0.95782 0.95782,4.75647 0,5.71429 -0.67344,0.67343 -2.18371,-0.67344 -2.85715,0 -1.34687,1.34687 1.34687,4.36741 0,5.71428 -3.80952,3.80953 -2.85714,-4.7619 -2.85714,2.85715 0,0.94057 1.56349,12.99206 -2.85714,8.57143 -0.67344,-0.67344 0,-1.90477 0,-2.85715 0,-0.95238 0,-1.90476 0,-2.85714 0,-7.61905 0,-15.23809 0,-22.85714 0,-6.70051 0.67343,1.34687 -2.85715,-5.71429 -0.98676,-1.97352 1.00292,-13.2828 0,-14.28571 -0.67343,-0.67344 -2.1837,0.67343 -2.85714,0 -1.00291,-1.00291 0.98676,-12.31219 0,-14.28572 -0.60234,-1.20467 -2.2548,-1.65246 -2.85714,-2.85714 -1.14286,-2.28571 1.14286,-6.28571 0,-8.57143 -0.60234,-1.20468 -2.25481,-1.65246 -2.85714,-2.85714 -0.42592,-0.85184 0.67343,-2.18371 0,-2.85714 -0.67344,-0.67344 -2.18371,0.67343 -2.85715,0 -0.67343,-0.67344 0.67344,-2.18371 0,-2.85715 -0.40293,-0.40293 -7.985345,-0.29304 -8.571426,0 -1.204677,0.60234 -2.254804,1.65247 -2.857143,2.85715 -0.434762,0.86952 0,7.28469 0,8.57142 0,6.66667 0,13.33334 0,20 0,1.28674 -0.434762,7.70191 0,8.57143 3.530578,7.06116 2.857143,-0.98622 2.857143,5.71429 0,7.61905 -0.952381,-0.95238 2.857143,2.85714 0.114975,0.11498 0,10.37933 0,11.42857 0,0.95238 0.952381,2.85715 0,2.85715 -0.952381,0 0,-3.80953 0,-2.85715 0,1.90477 0.602339,3.90727 0,5.71429 -0.425918,1.27775 -1.904762,3.80952 -2.857143,2.85714 -0.952381,-0.95238 4.204013,-2.85714 2.857143,-2.85714 -2.129588,0 -3.69398,2.18371 -5.714286,2.85714 -0.903507,0.30117 -1.904761,0 -2.857142,0 -0.952381,0 -2.183708,0.67344 -2.857143,0 -0.673435,-0.67343 0.425917,-2.00531 0,-2.85714 -0.602339,-1.20468 -2.254805,-1.65247 -2.857143,-2.85714 -0.851836,-1.70367 1.34687,-4.36742 0,-5.71429 -0.673435,-0.67343 -2.183708,0.67344 -2.857143,0 -1.002913,-1.00291 0.986762,-12.31219 0,-14.28571 -3.530578,-7.06116 -2.857143,0.98622 -2.857143,-5.71429 0,-0.69293 0.09189,-8.47954 0,-8.57143 -0.673435,-0.67343 -2.183708,0.67344 -2.857143,0 -0.781777,-0.78178 0.774983,-9.87861 0,-11.42857 -0.602338,-1.20468 -3.809524,-1.90476 -2.857143,-2.85714 0.952381,-0.95238 4.204013,2.85714 2.857143,2.85714 -2.129588,0 -3.69398,-2.18371 -5.714285,-2.85714 -0.903508,-0.30117 -1.904762,0 -2.857143,0 -0.952381,0 -2.183708,-0.67344 -2.857143,0 -0.673435,0.67343 0.425918,2.00531 0,2.85714 -0.602339,1.20468 -2.254804,1.65247 -2.857143,2.85714 -0.425918,0.85184 0,1.90477 0,2.85715 0,0.95238 0,1.90476 0,2.85714 0,5.71428 0,11.42857 0,17.14286 0,0.95238 -0.673435,2.1837 0,2.85714 0.673435,0.67343 2.183708,-0.67344 2.857143,0 0.673435,0.67343 -0.425918,2.00531 0,2.85714 0.602338,1.20468 2.254804,1.65247 2.857143,2.85714 0.425917,0.85184 -0.673435,2.18371 0,2.85715 0.673435,0.67343 2.183708,-0.67344 2.857143,0 0.114975,0.11497 0,10.37932 0,11.42857 0,0.95238 0.952381,2.85714 0,2.85714 -0.952381,0 0.952381,-2.85714 0,-2.85714 -1.34687,0 -1.510273,2.85714 -2.857143,2.85714 -0.952381,0 0.425917,-2.00531 0,-2.85714 -1.714286,-3.42857 -6.857143,-5.14286 -8.571429,-8.57143 -0.851835,-1.70367 1.34687,-4.36742 0,-5.71429 -0.673435,-0.67343 -2.183708,0.67344 -2.857143,0 -0.673435,-0.67343 0.673435,-2.1837 0,-2.85714 -0.673435,-0.67343 -2.183708,-0.67343 -2.857143,0 -0.09188,0.0919 0,7.8785 0,8.57143 0,1.34714 -0.12949,14.15622 0,14.28571 0.673435,0.67344 2.183708,-0.67343 2.857143,0 0.673435,0.67344 -0.425917,2.00531 0,2.85715 0.602339,1.20467 2.254805,1.65246 2.857143,2.85714 0.425918,0.85184 -0.673435,2.18371 0,2.85714 0.673435,0.67344 2.183708,-0.67343 2.857143,0 0.673435,0.67344 -0.425918,2.00531 0,2.85715 0.602339,1.20467 2.254804,1.65246 2.857143,2.85714 0.425918,0.85183 0,1.90476 0,2.85714 0.952381,0.95238 2.254804,1.65247 2.857143,2.85714 0.425917,0.85184 -0.30117,1.95364 0,2.85715 0.673435,2.0203 1.904762,3.80952 2.857143,5.71428"
       id="path4342"
       inkscape:connector-curvature="0" />
    <path
       style="fill:#ffe680;fill-rule:evenodd;stroke:#000000;stroke-width:1px;stroke-linecap:butt;stroke-linejoin:miter;stroke-opacity:1"
       d="m 68.571429,340.93363 c 0.970948,5.51471 19.009053,1.57445 22.857142,2.85715 1.277754,0.42591 1.652466,2.2548 2.857143,2.85714 0.851836,0.42592 1.904762,0 2.857143,0 0.952381,0 1.904762,0 2.857143,0 5.71429,0 11.42857,0 17.14286,0 2.85714,0 5.71428,0 8.57143,0 0.95238,0 3.80952,0 2.85714,0 -1.90476,0 -7.61905,0 -5.71429,0 2.85715,0 5.7996,-0.69296 8.57143,0 1.30666,0.32666 1.90476,1.90476 2.85714,2.85714 0.95239,0.95238 2.25481,1.65247 2.85715,2.85714 0.85183,1.70368 -1.34687,4.36742 0,5.71429 0.67343,0.67344 2.1837,-0.67343 2.85714,0 0.67344,0.67344 0,1.90476 0,2.85714 0,0.95238 0.67344,2.18371 0,2.85715 -0.67344,0.67343 -1.90476,0 -2.85714,0 -0.95238,0 -1.90476,0 -2.85715,0 -0.95238,0 -3.80952,0 -2.85714,0 15.81212,0 3.04503,0 2.85714,0"
       id="path4344"
       inkscape:connector-curvature="0" />
    <path
       style="fill:#ffe680;stroke:#ffe680;stroke-width:2.85714293"
       d="m 67.347202,332.97021 c -1.638569,-4.30976 -5.518624,-11.4022 -8.622344,-15.76098 -3.10372,-4.35877 -5.643128,-11.5656 -5.643128,-16.01517 l 0,-8.09014 6.428572,9.19611 c 3.535714,5.05786 7.392857,9.21832 8.571428,9.24548 3.876767,0.0893 2.235132,-15.69028 -2.306988,-22.17507 -5.740119,-8.19516 -4.61538,-30.6327 1.535542,-30.6327 2.89417,0 5.475997,5.86049 8.181604,18.57143 6.136817,28.83077 8.901005,34.70945 15.853842,33.71683 4.747812,-0.67782 6.214058,-3.20596 6.930918,-11.95049 0.500062,-6.09993 -0.464223,-12.46422 -2.142858,-14.14285 -4.760711,-4.76072 -3.977297,-41.90921 0.883812,-41.90921 2.164731,0 5.282098,1.62211 6.927498,3.60468 3.71746,4.47927 11.97231,50.7034 11.98464,67.10961 0.005,6.67857 1.29485,12.14286 2.86628,12.14286 1.57142,0 2.86194,-2.25 2.86782,-5 0.0129,-6.02149 9.89365,-22.93205 17.75326,-30.38395 3.12318,-2.96118 11.33253,-6.02124 18.243,-6.80015 11.82281,-1.33261 12.56449,-1.00184 12.56449,5.6034 0,6.17435 -1.03211,6.86811 -8.57143,5.76158 -5.93012,-0.87036 -8.591,-0.0575 -8.63492,2.63769 -0.0349,2.14264 -6.46349,9.50905 -14.28572,16.36979 -7.82222,6.86074 -14.22222,14.89645 -14.22222,17.85714 0,4.77408 -2.34341,5.38748 -20.71428,5.42208 -11.392861,0.0214 -23.584235,0.80828 -27.091944,1.74849 -5.08793,1.36377 -6.980132,0.12486 -9.356874,-6.12646 z"
       id="path4346"
       inkscape:connector-curvature="0" />
    <path
       style="fill:#ffe680;stroke:#ffe680;stroke-width:2.85714293"
       d=""
       id="path4348"
       inkscape:connector-curvature="0" />
    <path
       style="fill:#ffe680;stroke:#ffe680;stroke-width:2.85714293"
       d="m 139.01518,353.85259 c -2.28334,-6.55001 -2.34415,-9.64462 -0.20353,-10.35816 1.67895,-0.55965 7.00492,-4.34317 11.83548,-8.40782 7.99782,-6.72972 8.63172,-8.49294 7.09196,-19.72672 l -1.6909,-12.33644 9.94534,0 9.94534,0 0,14.47355 c 0,20.64372 -3.20816,25.66744 -25.93455,40.61133 l -7.73299,5.08487 -3.25615,-9.34061 z"
       id="path4350"
       inkscape:connector-curvature="0" />
    <path
       style="fill:#ffe680;fill-rule:evenodd;stroke:#000000;stroke-width:1px;stroke-linecap:butt;stroke-linejoin:miter;stroke-opacity:1"
       d="m 68.571429,332.3622 c 0.952381,3.80953 2.08704,7.57806 2.857142,11.42858 0.285757,1.42878 -0.410653,11.01791 0,11.42857 0.673435,0.67343 2.183708,-0.67344 2.857143,0 1.34687,1.34687 -0.851835,4.01061 0,5.71428 0.602339,1.20468 3.809524,1.90477 2.857143,2.85715 -1.093984,1.09398 -9.230571,-12.08772 2.857143,0 0.673435,0.67343 -0.673435,2.1837 0,2.85714 0.673435,0.67343 1.904762,0 2.857143,0 4.761905,0 9.523809,0 14.285714,0 6.666663,0 13.333333,0 20.000003,0 0.95238,0 1.90476,0 2.85714,0 0.95238,0 2.85714,-0.95238 2.85714,0 0,0.95238 -3.53058,0.67343 -2.85714,0 11.15067,-11.15067 1.53442,0.66136 8.57143,-2.85714 1.20468,-0.60234 1.65246,-2.25481 2.85714,-2.85715 0.85184,-0.42591 2.85714,-0.95238 2.85714,0 0,0.95238 -3.80952,0 -2.85714,0 1.90476,0 4.01062,0.85184 5.71429,0 0.85183,-0.42591 -0.67344,-2.1837 0,-2.85714 5.91153,-5.91153 -0.23109,9.0336 5.71428,-2.85714 0.85184,-1.70367 -1.90476,-5.71429 0,-5.71429 0.95238,0 0,3.80953 0,2.85714 0,-1.90476 0,-3.80952 0,-5.71428 0,-0.95238 0.42592,-2.00531 0,-2.85714 -0.60234,-1.20468 -1.65246,-2.25481 -2.85714,-2.85715 -0.85184,-0.42591 -2.85714,0.95238 -2.85714,0 0,-0.95238 3.80952,0 2.85714,0 -1.90476,0 -4.01061,0.85184 -5.71429,0 -0.85183,-0.42591 0.67344,-2.1837 0,-2.85714 -0.67343,-0.67343 -2.1837,0.67344 -2.85714,0 -0.67343,-0.67343 0.67344,-2.18371 0,-2.85714 -0.67343,-0.67344 -2.18371,0.67343 -2.85714,0 -0.67344,-0.67344 0.67343,-2.18371 0,-2.85715 -5.91153,-5.91153 0.23108,9.03361 -5.71429,-2.85714 -0.42591,-0.85183 0.67344,-2.18371 0,-2.85714 -0.67343,-0.67344 -2.85714,0.95238 -2.85714,0 0,-0.95238 3.80952,0 2.85714,0 -1.90476,0 -3.80952,0 -5.71428,0 -0.95238,0 -2.18371,0.67343 -2.85715,0 -0.67343,-0.67344 0.67344,-2.18371 0,-2.85714 -0.67343,-0.67344 -1.90476,0 -2.85714,0 -5.71428,0 -11.42857,0 -17.142856,0 -0.692933,0 -8.479543,-0.0919 -8.571428,0 -0.673435,0.67343 0.673435,2.1837 0,2.85714 -0.673435,0.67343 -2.183708,-0.67344 -2.857143,0 -0.673435,0.67343 0.673435,2.18371 0,2.85714 -0.673435,0.67344 -1.923257,-0.18678 -2.857143,0 -3.850512,0.7701 -7.619048,1.90476 -11.428571,2.85714 z"
       id="path4352"
       inkscape:connector-curvature="0" />
    <path
       style="fill:#ffe680;fill-rule:evenodd;stroke:#000000;stroke-width:1px;stroke-linecap:butt;stroke-linejoin:miter;stroke-opacity:1"
       d="m 202.85714,572.3622 c 8.51836,2.751 -2.12959,10.02654 0,14.28572 0.60234,1.20468 2.25481,1.65246 2.85715,2.85714 0.42591,0.85184 -0.67344,2.18371 0,2.85714 0.67343,0.67344 2.1837,-0.67343 2.85714,0 0.96349,0.96349 -0.96349,4.7508 0,5.71429 0.67343,0.67344 2.18371,-0.67343 2.85714,0 1.42857,1.42857 -1.42857,7.14286 0,8.57143 0.67344,0.67343 2.18371,-0.67344 2.85714,0 1.42858,1.42857 -1.42857,7.14286 0,8.57143 0.67344,0.67343 2.18371,-0.67344 2.85715,0 0.5841,0.5841 -0.56642,7.43859 0,8.57143 0.60234,1.20467 2.2548,1.65246 2.85714,2.85714 0.42592,0.85183 -0.42592,2.00531 0,2.85714 0.60234,1.20468 2.2548,1.65247 2.85714,2.85714 0.42592,0.85184 0.95238,2.85715 0,2.85715 -0.95238,0 0,-3.80953 0,-2.85715 0,2.85715 0,5.71429 0,8.57143 0,0.95238 0.67344,2.18371 0,2.85715 -0.67343,0.67343 -2.1837,-0.67344 -2.85714,0 -0.67344,0.67343 0.67344,2.1837 0,2.85714 -0.67344,0.67343 -2.00531,-0.42592 -2.85714,0 -1.20468,0.60234 -1.65247,2.2548 -2.85715,2.85714 -0.85183,0.42592 -2.1837,-0.67343 -2.85714,0 -0.67343,0.67344 0.85184,2.43123 0,2.85714 -1.70367,0.85184 -3.86639,-0.46197 -5.71428,0 -2.06601,0.51651 -3.69398,2.18371 -5.71429,2.85715 -1.80702,0.60234 -4.01061,-0.85184 -5.71429,0 -1.20467,0.60234 -1.65246,2.2548 -2.85714,2.85714 -0.85183,0.42592 -2.18371,-0.67343 -2.85714,0 -0.67344,0.67344 0.67343,2.18371 0,2.85714 -0.67344,0.67344 -2.00531,-0.42591 -2.85714,0 -2.40936,1.20468 -3.30494,4.50961 -5.71429,5.71429 -0.85184,0.42592 -2.18371,-0.67344 -2.85714,0 -0.67344,0.67343 0.67343,2.18371 0,2.85714 -1.34687,1.34687 -4.01062,-0.85183 -5.71429,0 -1.20468,0.60234 -1.65246,2.25481 -2.85714,2.85714 -0.85184,0.42592 -2.18371,-0.67343 -2.85714,0 -0.67344,0.67344 0.67343,2.18371 0,2.85715 -0.67344,0.67343 -2.18371,-0.67344 -2.85715,0 -0.67343,0.67343 0.67344,2.18371 0,2.85714 -0.67343,0.67344 -2.1837,-0.67343 -2.85714,0 -0.67344,0.67344 0.67344,2.18371 0,2.85714 -0.67344,0.67344 -2.00531,-0.42591 -2.85714,0 -3.7155,1.85775 -1.99879,3.85654 -5.71429,5.71429 -0.24356,0.12178 -11.18501,0.12178 -11.42857,0 -11.89074,-5.94537 3.05439,0.19724 -2.85714,-5.71429 -0.67344,-0.67343 -2.18371,0.67344 -2.85715,0 -0.67343,-0.67343 0.67344,-2.1837 0,-2.85714 -0.67343,-0.67343 -2.0053,0.42592 -2.85714,0 -3.717,-1.8585 -1.99728,-3.85579 -5.71428,-5.71429 -0.85184,-0.42591 -2.18371,0.67344 -2.85715,0 -0.67343,-0.67343 0.85184,-2.43122 0,-2.85714 -1.41477,-0.70739 -10.09023,0.89223 -11.42857,0 -2.24133,-1.49422 -3.47296,-4.22007 -5.71428,-5.71428 -1.58486,-1.05658 -4.36742,1.34687 -5.71429,0 -5.91153,-5.91153 9.0336,0.23108 -2.857143,-5.71429 -0.851835,-0.42592 -2.183708,0.67344 -2.857143,0 -1.34687,-1.34687 1.34687,-4.36742 0,-5.71429 -0.673435,-0.67343 -2.183708,0.67344 -2.857143,0 -1.428571,-1.42857 1.428572,-7.14285 0,-8.57142 -0.673435,-0.67344 -2.183707,0.67343 -2.857142,0 -0.09189,-0.0919 0,-7.8785 0,-8.57143 0,-15.2381 0,-30.47619 0,-45.71429 0,-1.29255 0.380713,-16.38143 0,-17.14286 -0.602339,-1.20467 -2.254805,-1.65246 -2.857143,-2.85714 -0.425918,-0.85183 0.673435,-2.18371 0,-2.85714 -0.673435,-0.67344 -2.183708,0.67343 -2.857143,0 -1.002913,-1.00291 0.986762,-12.31219 0,-14.28572 -0.602339,-1.20467 -2.254804,-1.65246 -2.857143,-2.85714 -0.566417,-1.13283 0.584104,-7.98732 0,-8.57143 -0.673435,-0.67343 -2.183708,0.67344 -2.857143,0 -0.114975,-0.11497 0,-10.37932 0,-11.42857 0,-20 0,-40 0,-60 0,-4.7619 0,-9.52381 0,-14.28571 0,-0.95238 -0.673435,-2.18371 0,-2.85715 0.673435,-0.67343 2.183708,0.67344 2.857143,0 0.09189,-0.0919 0,-7.87849 0,-8.57142 0,-23.80953 0,-47.61905 0,-71.42858 0,-4.7619 0,-9.5238 0,-14.28571 0,-1.90485 0,-3.80943 0,-5.71429 0,-0.95238 -0.952381,-2.85714 0,-2.85714 0.952381,0 0.673435,3.53058 0,2.85714 -1.505847,-1.50584 -2.183708,-3.69398 -2.857143,-5.71428 -0.602338,-1.80702 1.34687,-4.36742 0,-5.71429 -0.673435,-0.67343 -2.183708,0.67344 -2.857143,0 -0.673435,-0.67343 0.425918,-2.0053 0,-2.85714 -0.602338,-1.20468 -2.254804,-1.65247 -2.857143,-2.85714 -0.425917,-0.85184 0.673435,-2.18371 0,-2.85715 -0.673435,-0.67343 -2.183707,0.67344 -2.857142,0 -1.34687,-1.34687 1.34687,-4.36741 0,-5.71428 -0.673435,-0.67344 -2.005308,0.42592 -2.857143,0 -11.890744,-5.94537 3.054387,0.19724 -2.857143,-5.71429 -0.673435,-0.67343 -2.183708,0.67344 -2.857143,0 -0.673435,-0.67343 0.425918,-2.0053 0,-2.85714 -0.602339,-1.20468 -2.254804,-1.65247 -2.857143,-2.85714 -0.425918,-0.85184 0.673435,-2.18371 0,-2.85715 -0.673435,-0.67343 -2.183708,0.67344 -2.857143,0 -0.673435,-0.67343 0.673435,-2.1837 0,-2.85714 -0.673435,-0.67343 -2.183708,0.67344 -2.857143,0 -0.12949,-0.12949 0,-12.93858 0,-14.28571 0,-0.95238 0,-1.90476 0,-2.85715 0,-0.95238 -0.952381,-2.85714 0,-2.85714 0.952381,0 -0.952381,2.85714 0,2.85714 1.34687,0 1.510273,-2.85714 2.857143,-2.85714 1.904762,0 -1.34687,4.36742 0,5.71429 0.673435,0.67343 2.183708,-0.67344 2.857143,0 1.940932,1.94093 -2.921374,5.68217 2.857143,8.57143 0.851835,0.42591 2.183708,0.67343 2.857143,0 0.114975,-0.11498 0,-10.37933 0,-11.42858 0,-2.02514 0.369358,-16.40414 0,-17.14285 C 62.254804,274.01467 60.602339,273.56688 60,272.3622 c -0.425918,-0.85183 0,-1.90476 0,-2.85714 0,-1.90476 0,-3.80952 0,-5.71428 0,-0.95238 -0.952381,-2.85715 0,-2.85715 0.952381,0 0,3.80953 0,2.85715 0,-7.06116 -1.34687,-4.36742 2.857143,-8.57143 0.952381,-0.95238 1.652466,-2.25481 2.857143,-2.85715 0.851835,-0.42591 1.904762,0 2.857143,0 2.955765,0 3.948996,-0.67343 5.714285,2.85715 0.369358,0.73871 0,15.11771 0,17.14285 0,5.71429 0,11.42858 0,17.14286 0,0.95238 -0.673435,2.18371 0,2.85714 0.673435,0.67344 2.183708,-0.67343 2.857143,0 1.34687,1.34687 -0.851835,4.01062 0,5.71429 0.602339,1.20468 3.809524,1.90476 2.857143,2.85714 -0.952381,0.95238 -2.857143,-4.20401 -2.857143,-2.85714 0,2.12959 1.351296,4.20844 2.857143,5.71429 0.673435,0.67343 2.183708,-0.67344 2.857143,0 0.673435,0.67343 -0.673435,2.1837 0,2.85714 0.673435,0.67343 1.904762,0 2.857143,0 0.692933,0 8.479543,0.0919 8.571428,0 1.34687,-1.34687 -0.851835,-4.01062 0,-5.71429 0.602339,-1.20467 2.254805,-1.65246 2.857143,-2.85714 0.434763,-0.86953 0,-7.28469 0,-8.57143 0,-6.66666 0,-13.33333 0,-20 0,-1.49406 0.375631,-10.67731 0,-11.42857 -0.602338,-1.20468 -2.254804,-1.65247 -2.857143,-2.85714 -0.425917,-0.85184 0,-1.90476 0,-2.85715 0,-5.71428 0,-11.42857 0,-17.14285 0,-0.95238 -0.673435,-2.18371 0,-2.85715 0.673435,-0.67343 1.904762,0 2.857143,0 0.952381,0 1.904762,0 2.857143,0 0.95238,0 2.18371,-0.67343 2.85714,0 0.67344,0.67344 -0.42591,2.00531 0,2.85715 1.20468,2.40935 4.50961,3.30493 5.71429,5.71428 0.42592,0.85184 -0.42592,2.00531 0,2.85715 0.60234,1.20467 2.2548,1.65246 2.85714,2.85714 0.85184,1.70367 -1.34687,4.36741 0,5.71428 0.67344,0.67344 2.18371,-0.67343 2.85714,0 0.67344,0.67344 0,1.90477 0,2.85715 0,0.95238 0,1.90476 0,2.85714 0,13.33333 0,26.66667 0,40 0,1.34714 -0.12949,14.15622 0,14.28571 0.28572,0.28572 8.28572,0.28572 8.57143,0 0.67344,-0.67343 -0.42591,-2.0053 0,-2.85714 9.47595,-9.47595 -1.34687,2.69374 2.85715,-5.71428 0.60233,-1.20468 2.2548,-1.65247 2.85714,-2.85715 0.42592,-0.85183 -0.42592,-2.0053 0,-2.85714 0.27346,-0.54692 10.88165,-11.15511 11.42857,-11.42857 1.70367,-0.85184 4.36742,1.34687 5.71429,0 0.67343,-0.67344 -0.67344,-2.18371 0,-2.85714 1.42857,-1.42858 7.14285,1.42857 8.57142,0 0.67344,-0.67344 -0.67343,-2.18371 0,-2.85715 1.34687,-1.34687 4.36742,1.34687 5.71429,0 0.67344,-0.67343 -0.67344,-2.1837 0,-2.85714 0.11498,-0.11497 10.37932,0 11.42857,0 0.95238,0 2.18371,-0.67343 2.85714,0 0.67344,0.67344 0,1.90476 0,2.85714 0,0.95238 0,3.80953 0,2.85715 0,-1.90477 0,-7.61905 0,-5.71429 0,2.85714 0.90351,5.86091 0,8.57143 -0.30117,0.90351 -2.0053,-0.42592 -2.85714,0 -1.20468,0.60234 -1.90476,1.90476 -2.85714,2.85714 -0.95238,0.95238 -2.25481,1.65247 -2.85714,2.85714 -0.42592,0.85184 0.67343,2.18371 0,2.85715 -0.67344,0.67343 -2.18371,-0.67344 -2.85715,0 -0.67343,0.67343 0.67344,2.18371 0,2.85714 -0.67343,0.67344 -2.0053,-0.42592 -2.85714,0 -1.20468,0.60234 -1.65247,2.2548 -2.85714,2.85714 -0.85184,0.42592 -2.00531,-0.42591 -2.85715,0 -1.20467,0.60234 -1.65246,2.25481 -2.85714,2.85715 -0.85183,0.42591 -2.18371,-0.67344 -2.85714,0 -0.67344,0.67343 0.67343,2.1837 0,2.85714 -0.67344,0.67343 -2.18371,-0.67344 -2.85714,0 -0.67344,0.67343 0.67343,2.18371 0,2.85714 -0.67344,0.67344 -2.00531,-0.42592 -2.85715,0 -1.20467,0.60234 -1.65246,2.25481 -2.85714,2.85714 -0.85184,0.42592 -2.18371,-0.67343 -2.85714,0 -0.67344,0.67344 0.67343,2.18371 0,2.85715 -0.67344,0.67343 -2.00531,-0.42592 -2.85715,0 -1.20467,0.60234 -1.65246,2.2548 -2.85714,2.85714 -0.85183,0.42592 -2.18371,-0.67343 -2.85714,0 -0.67344,0.67344 0.67343,2.18371 0,2.85714 -0.67344,0.67344 -2.18371,-0.67343 -2.85714,0 -0.67344,0.67344 0.67343,2.18371 0,2.85715 -0.67344,0.67343 -2.18371,-0.67344 -2.85715,0 -0.67343,0.67343 0,1.90476 0,2.85714 0,0.95238 -0.67343,2.18371 0,2.85714 0.67344,0.67344 2.85715,-0.95238 2.85715,0 0,0.95238 -3.80953,0 -2.85715,0 0.67895,0 10.7882,0.32019 11.42857,0 3.17481,-1.5874 2.53949,-4.12688 5.71429,-5.71428 0.85184,-0.42592 2.18371,0.67343 2.85714,0 0.67344,-0.67344 -0.67343,-2.18371 0,-2.85715 0.67344,-0.67343 2.18371,0.67344 2.85715,0 1.00291,-1.00291 -0.98677,-12.31219 0,-14.28571 0.60233,-1.20468 2.2548,-1.65247 2.85714,-2.85714 0.42592,-0.85184 -0.67344,-2.18371 0,-2.85715 0.67343,-0.67343 2.18371,0.67344 2.85714,0 0.67344,-0.67343 -0.67343,-2.1837 0,-2.85714 0.67344,-0.67343 2.85714,-0.95238 2.85714,0 0,0.95238 -1.90476,0 -2.85714,0 1.90476,0.95238 4.20844,1.3513 5.71429,2.85714 0.11497,0.11498 0,10.37933 0,11.42857 0,0.95239 0,1.90477 0,2.85715 0,0.95238 0.67343,2.18371 0,2.85714 -0.67344,0.67344 -2.18371,-0.67343 -2.85715,0 -1.42857,1.42857 1.42858,7.14286 0,8.57143 -0.67343,0.67343 -2.1837,-0.67344 -2.85714,0 -0.67343,0.67343 0.67344,2.18371 0,2.85714 -0.67343,0.67344 -2.18371,-0.67343 -2.85714,0 -0.67344,0.67344 0.67343,2.18371 0,2.85714 -0.67344,0.67344 -2.18371,-0.67343 -2.85714,0 -0.67344,0.67344 0.67343,2.18371 0,2.85715 -5.91153,5.91153 0.23108,-9.0336 -5.71429,2.85714 -0.85184,1.70367 1.90476,5.71429 0,5.71429 -0.95238,0 0,-3.80953 0,-2.85715 0,2.85715 0,5.71429 0,8.57143 0,0.95238 0,1.90476 0,2.85714 0,0.95239 -0.67344,2.18371 0,2.85715 0.67344,0.67343 1.90476,0 2.85714,0 1.04925,0 11.3136,0.11497 11.42857,0 0.67344,-0.67344 -0.67343,-2.18371 0,-2.85715 0.67344,-0.67343 2.00531,0.42592 2.85715,0 2.40935,-1.20467 3.30493,-4.5096 5.71428,-5.71428 0.85184,-0.42592 2.18371,0.67343 2.85715,0 0.67343,-0.67344 -0.67344,-2.18371 0,-2.85714 0.67343,-0.67344 2.1837,0.67343 2.85714,0 0.67343,-0.67344 -0.67344,-2.18371 0,-2.85715 0.67343,-0.67343 2.18371,0.67344 2.85714,0 1.34687,-1.34687 -0.85183,-4.01061 0,-5.71428 0.60234,-1.20468 2.25481,-1.65247 2.85714,-2.85715 0.56642,-1.13283 -0.5841,-7.98732 0,-8.57142 0.67344,-0.67344 2.18371,0.67343 2.85715,0 0.67343,-0.67344 0,-1.90477 0,-2.85715 0,-4.7619 0,-9.52381 0,-14.28571 0,-1.04925 0.11497,-11.3136 0,-11.42857 -0.67344,-0.67344 -1.90476,0 -2.85715,0 -0.95238,0 -1.90476,0 -2.85714,0 -0.95238,0 -1.90476,0 -2.85714,0 -0.95238,0 -2.00531,-0.42592 -2.85714,0 -1.20468,0.60234 -1.90477,3.80952 -2.85715,2.85714 -0.95238,-0.95238 4.20402,-2.85714 2.85715,-2.85714 -2.12959,0 -4.20844,1.35129 -5.71429,2.85714 -0.67344,0.67344 0.42592,2.00531 0,2.85714 -0.60234,1.20468 -2.2548,1.65247 -2.85714,2.85715 -0.76194,1.52388 0.76194,4.1904 0,5.71428 -0.60234,1.20468 -2.25481,1.65247 -2.85715,2.85714 -0.42591,0.85184 0,1.90477 0,2.85715 0,0.95238 0,1.90476 0,2.85714 0,1.04925 0.11498,11.3136 0,11.42857 -0.67343,0.67344 -2.1837,-0.67343 -2.85714,0 -0.67343,0.67344 0.95238,2.85714 0,2.85714 -0.95238,0 0.67344,-3.53057 0,-2.85714 -1.50585,1.50585 -1.67586,3.94236 -2.85714,5.71429 -0.74711,1.12066 -2.25481,1.65246 -2.85714,2.85714 -0.42592,0.85184 0.67343,2.18371 0,2.85714 -5.91153,5.91153 0.23108,-9.0336 -5.71429,2.85715 -0.42592,0.85183 0.42592,2.0053 0,2.85714 -0.60234,1.20468 -2.2548,1.65246 -2.85714,2.85714 -0.42592,0.85184 0,1.90476 0,2.85714 -0.95238,0.95239 -2.25481,1.65247 -2.85715,2.85715 -0.42591,0.85183 0,1.90476 0,2.85714 0,0.95238 0,1.90476 0,2.85714 0,5.71429 0,11.42857 0,17.14286 0,4.76191 0,9.52381 0,14.28571 0,1.90477 0,3.80953 0,5.71429 0,0.95238 0.42592,2.00531 0,2.85714 -0.60233,1.20468 -2.2548,1.65247 -2.85714,2.85715 -0.43476,0.86952 0,7.28469 0,8.57142 0,6.66667 0,13.33334 0,20 0,23.80953 0,47.61905 0,71.42858 0,10.47619 0,20.95238 0,31.42857 0,0.95238 0,1.90476 0,2.85714 0,0.95238 -0.67343,2.18371 0,2.85714 0.67344,0.67344 2.18371,-0.67343 2.85714,0 1.00292,1.00292 -0.98676,12.31219 0,14.28572 0.60234,1.20467 2.25481,1.65246 2.85715,2.85714 0.56641,1.13283 -0.58411,7.98732 0,8.57143 0.67343,0.67343 2.1837,-0.67344 2.85714,0 1.00291,1.00291 -0.98676,12.31219 0,14.28571 0.60234,1.20468 2.2548,1.65247 2.85714,2.85715 1.14286,2.28571 -1.14285,6.28571 0,8.57142 1.20468,2.40936 4.50961,3.30494 5.71429,5.71429 0.42592,0.85184 -0.67344,2.18371 0,2.85714 0.67343,0.67344 2.18371,-0.67343 2.85714,0 0.67344,0.67344 -0.67343,2.18371 0,2.85715 0.67344,0.67343 1.90476,0 2.85714,0 1.04925,0 11.3136,0.11497 11.42858,0 5.91153,-5.91153 -9.03361,0.23108 2.85714,-5.71429 0.85183,-0.42592 2.00531,0.42592 2.85714,0 1.20468,-0.60234 1.65247,-2.2548 2.85714,-2.85714 0.85184,-0.42592 2.18371,0.67343 2.85715,0 0.67343,-0.67344 -0.67344,-2.18371 0,-2.85715 0.67343,-0.67343 2.1837,0.67344 2.85714,0 0.67344,-0.67343 -0.67344,-2.1837 0,-2.85714 1.34687,-1.34687 4.36742,1.34687 5.71429,0 0.67343,-0.67343 -0.67344,-2.18371 0,-2.85714 0.67343,-0.67344 2.0053,0.42592 2.85714,0 1.20468,-0.60234 1.90476,-1.90476 2.85714,-2.85714 0.95238,-0.95238 1.65247,-2.25481 2.85714,-2.85715 0.85184,-0.42591 1.90477,0 2.85715,0 0.95238,0 1.90476,0 2.85714,0 0.95238,0 2.85714,-0.95238 2.85714,0 0,0.95238 -1.90476,0 -2.85714,0"
       id="path4354"
       inkscape:connector-curvature="0" />
    <path
       style="fill:#00ffff;stroke:#ffe680;stroke-width:2.85714293"
       d="m 216.43299,612.17504 c -5.06285,-13.67623 -9.49518,-25.73547 -9.84964,-26.79831 -0.65971,-1.97812 44.45589,-71.06243 45.63645,-69.88187 0.35881,0.3588 -1.38221,7.02095 -3.86893,14.80477 -4.99371,15.63108 -6.87399,71.16247 -2.89982,85.64185 2.19584,8.00025 1.55721,9.08875 -8.72179,14.86587 l -11.09111,6.23355 -9.20516,-24.86586 z"
       id="path4356"
       inkscape:connector-curvature="0" />
    <path
       style="fill:#00ffff;fill-rule:evenodd;stroke:#000000;stroke-width:1px;stroke-linecap:butt;stroke-linejoin:miter;stroke-opacity:1"
       d="m 200,578.07649 c 3.80952,-2.85714 7.61905,-5.71429 11.42857,-8.57143 0,-0.95238 -0.42592,-2.00531 0,-2.85714 0.60234,-1.20468 2.25481,-1.65247 2.85714,-2.85714 0.42592,-0.85184 -0.67343,-2.18371 0,-2.85715 0.67344,-0.67343 2.18371,0.67344 2.85715,0 0.67343,-0.67343 -0.67344,-2.1837 0,-2.85714 0.67343,-0.67343 2.1837,0.67344 2.85714,0 0.67344,-0.67343 -0.42592,-2.00531 0,-2.85714 0.60234,-1.20468 2.2548,-1.65247 2.85714,-2.85715 0.42592,-0.85183 -0.67343,-2.1837 0,-2.85714 0.67344,-0.67343 2.18371,0.67344 2.85715,0 0.67343,-0.67343 -0.67344,-2.18371 0,-2.85714 0.67343,-0.67344 2.1837,0.67343 2.85714,0 0.67343,-0.67344 -0.67344,-2.18371 0,-2.85714 0.67343,-0.67344 2.18371,0.67343 2.85714,0 0.96349,-0.96349 -0.96349,-4.7508 0,-5.71429 0.67344,-0.67343 2.18371,0.67344 2.85714,0 0.67344,-0.67343 -0.42591,-2.00531 0,-2.85714 0.60234,-1.20468 2.25481,-1.65247 2.85715,-2.85715 0.85183,-1.70367 -1.34687,-4.36741 0,-5.71428 0.67343,-0.67344 2.1837,0.67343 2.85714,0 1.42857,-1.42857 -1.42857,-7.14286 0,-8.57143 0.67344,-0.67343 2.18371,0.67344 2.85714,0 0.67344,-0.67343 -0.67343,-2.18371 0,-2.85714 0.67344,-0.67344 2.18371,0.67343 2.85715,0 0.67343,-0.67344 -0.42592,-2.00531 0,-2.85715 1.20467,-2.40935 4.5096,-3.30493 5.71428,-5.71428 0.42592,-0.85184 -0.67343,-2.18371 0,-2.85714 0.67344,-0.67344 2.18371,0.67343 2.85714,0 1.42858,-1.42858 -1.42857,-7.14286 0,-8.57143 5.91153,-5.91153 -0.23108,9.0336 5.71429,-2.85715 0.85184,-1.70367 -1.34687,-4.36741 0,-5.71428 0.67344,-0.67344 2.18371,0.67343 2.85714,0 1.34687,-1.34687 -1.34687,-4.36742 0,-5.71429 1.90476,-1.90476 4.76191,0.95238 2.85715,2.85715 -0.67344,0.67343 -2.18371,-0.67344 -2.85715,0 -0.67343,0.67343 0.42592,2.0053 0,2.85714 -0.60234,1.20468 -2.2548,1.65246 -2.85714,2.85714 -1.14286,2.28572 1.14286,6.28572 0,8.57143 -1.20468,2.40935 -4.50961,3.30493 -5.71429,5.71429 -0.77498,1.54996 0.78178,10.64679 0,11.42857 -0.67343,0.67343 -2.1837,-0.67344 -2.85714,0 -0.5841,0.5841 0.56642,7.43859 0,8.57143 -0.60234,1.20467 -2.2548,1.65246 -2.85714,2.85714 -0.89789,1.79578 0.89789,9.63279 0,11.42857 -0.60234,1.20468 -2.25481,1.65247 -2.85714,2.85714 -0.89789,1.79578 0.89788,9.6328 0,11.42857 -0.60234,1.20468 -2.25481,1.65247 -2.85715,2.85715 -0.37563,0.75126 0,9.93451 0,11.42857 0,7.61905 0,15.23809 0,22.85714 0,0.69294 -0.0919,8.47954 0,8.57143 0.67344,0.67344 2.18371,-0.67343 2.85715,0 1.34687,1.34687 -0.85184,4.01062 0,5.71429 0.60233,1.20467 3.80952,1.90476 2.85714,2.85714 -1.61905,1.61905 -10.09524,-16.57143 2.85714,2.85714 0.28381,0.42571 0,7.63314 0,8.57143 0,2.52156 0.59481,10.23895 0,11.42857 -5.94537,11.89075 0.19725,-3.05439 -5.71428,2.85714 -0.67344,0.67344 0.67343,2.18371 0,2.85715 -1.34687,1.34687 -4.01062,-0.85184 -5.71429,0 -1.20468,0.60234 -1.65247,2.2548 -2.85714,2.85714 -0.85184,0.42592 -1.90476,0 -2.85715,0 -1.90476,0 -3.80952,0 -5.71428,0 -0.95238,0 -1.90476,0 -2.85714,0 -0.95239,0 -2.85715,0.95238 -2.85715,0 0,-0.95238 3.80953,0 2.85715,0 -1.90477,0 -4.01062,0.85184 -5.71429,0 -0.85184,-0.42592 0.42592,-2.00531 0,-2.85714 -0.60234,-1.20468 -2.2548,-1.65247 -2.85714,-2.85715 -0.42592,-0.85183 0.42591,-2.0053 0,-2.85714 -0.60234,-1.20468 -2.25481,-1.65246 -2.85715,-2.85714 -0.42591,-0.85184 0.67344,-2.18371 0,-2.85714 -0.67343,-0.67344 -2.1837,0.67343 -2.85714,0 -0.68752,-0.68752 0.68752,-10.74106 0,-11.42858 -0.67343,-0.67343 -2.18371,0.67344 -2.85714,0 -1.42857,-1.42857 1.42857,-7.14285 0,-8.57142 -0.67344,-0.67344 -2.18371,0.67343 -2.85714,0 -1.42858,-1.42858 1.42857,-7.14286 0,-8.57143 -0.67344,-0.67344 -2.18371,0.67343 -2.85715,0 -0.27558,-0.27559 0.23121,-4.55824 0,-5.71429 -0.7701,-3.85051 -2.37008,-7.53213 -2.85714,-11.42857 -0.47251,-3.78011 0,-7.61905 0,-11.42857 0,-0.95238 0,-1.90476 0,-2.85714 0,-0.95238 -0.67344,-2.18371 0,-2.85715 1.34687,-1.34687 4.36742,1.34687 5.71429,0 0.67343,-0.67343 -0.67344,-2.1837 0,-2.85714 0.0919,-0.0919 7.87849,0 8.57142,0"
       id="path4358"
       inkscape:connector-curvature="0" />
    <path
       style="fill:#00ffff;fill-rule:evenodd;stroke:#000000;stroke-width:1px;stroke-linecap:butt;stroke-linejoin:miter;stroke-opacity:1"
       d="m 645.71429,575.21935 c 18.09523,0 36.19047,0 54.28571,0 1.04925,0 11.3136,0.11497 11.42857,0 0.67344,-0.67344 -0.67343,-2.18371 0,-2.85715 1.34687,-1.34687 4.01062,0.85184 5.71429,0 1.20467,-0.60233 1.65246,-2.2548 2.85714,-2.85714 0.85184,-0.42592 2.85714,-0.95238 2.85714,0 0,0.95238 -3.80952,0 -2.85714,0 1.90476,0 4.01061,0.85184 5.71429,0 0.85183,-0.42592 0,-1.90476 0,-2.85714 0,-0.95238 0,-1.90476 0,-2.85714 0,-7.61905 0,-15.2381 0,-22.85715 0,-1.28673 0.43476,-7.7019 0,-8.57143 -0.60234,-1.20467 -2.25481,-1.65246 -2.85715,-2.85714 -0.90124,-1.80248 0.90124,-12.48323 0,-14.28571 -0.60234,-1.20468 -2.2548,-1.65247 -2.85714,-2.85715 -0.42592,-0.85183 0,-1.90476 0,-2.85714 0,-2.02515 0.36936,-16.40414 0,-17.14286 -0.60234,-1.20467 -2.2548,-1.65246 -2.85714,-2.85714 -0.42592,-0.85183 0.67343,-2.18371 0,-2.85714 -0.67344,-0.67344 -2.18371,0.67343 -2.85715,0 -0.67343,-0.67344 0.67344,-2.18371 0,-2.85714 -0.67343,-0.67344 -2.1837,0.67343 -2.85714,0 -0.67343,-0.67344 0.67344,-2.18371 0,-2.85715 -0.67343,-0.67343 -2.00531,0.42592 -2.85714,0 -1.20468,-0.60234 -3.80953,-1.90476 -2.85714,-2.85714 0.95238,-0.95238 3.80952,3.80952 2.85714,2.85714 -1.90476,-1.90476 -3.47296,-4.22006 -5.71429,-5.71428 -0.98258,-0.65506 -7.94507,0.62635 -8.57143,0 -0.67343,-0.67344 0.67344,-2.18371 0,-2.85715 -0.0919,-0.0919 -7.87849,0 -8.57142,0 -5.71429,0 -11.42858,0 -17.14286,0 -0.95238,0 -2.18371,-0.67343 -2.85714,0 -0.67344,0.67344 0.67343,2.18371 0,2.85715 -1.42858,1.42857 -7.14286,-1.42857 -8.57143,0 -0.67344,0.67343 0.67343,2.18371 0,2.85714 -1.42857,1.42857 -7.14286,-1.42857 -8.57143,0 -0.67344,0.67344 0.67343,2.18371 0,2.85714 -0.67344,0.67344 -2.00531,-0.42591 -2.85714,0 -1.20468,0.60234 -1.65247,2.25481 -2.85715,2.85715 -0.85183,0.42591 -2.0053,-0.42592 -2.85714,0 -3.53058,1.76529 -2.85714,2.75852 -2.85714,5.71428 0,12.38095 0,24.76191 0,37.14286 0,0.95238 0,1.90476 0,2.85714 0,0.95238 -0.67344,2.18371 0,2.85714 0.67343,0.67344 2.1837,-0.67343 2.85714,0 0.67344,0.67344 -0.67344,2.18371 0,2.85715 0.67344,0.67343 2.18371,-0.67344 2.85714,0 1.34687,1.34687 -0.85183,4.01061 0,5.71428 0.60234,1.20468 2.25481,1.65247 2.85715,2.85715 0.43476,0.86952 0,7.28469 0,8.57142 0,7.61905 0,15.2381 0,22.85715 z"
       id="path4360"
       inkscape:connector-curvature="0" />
    <path
       style="fill:#ffe680;fill-rule:evenodd;stroke:#000000;stroke-width:1px;stroke-linecap:butt;stroke-linejoin:miter;stroke-opacity:1"
       d="m 671.42857,840.93363 c -0.95238,3.80953 -1.10104,7.91637 -2.85714,11.42857 -0.42592,0.85184 -2.18371,-0.67343 -2.85714,0 -0.0919,0.0919 0,7.8785 0,8.57143 0,6.70051 0.67343,-1.34687 -2.85715,5.71429 -0.37563,0.75126 0,9.93451 0,11.42857 0,9.52381 0,19.04762 0,28.57143 0,2.95576 -0.67343,3.949 2.85715,5.71428 0.24356,0.12178 11.18501,0.12178 11.42857,0 1.20467,-0.60233 2.2548,-1.65246 2.85714,-2.85714 0.42592,-0.85183 0,-1.90476 0,-2.85714 0,-0.95238 0,-1.90476 0,-2.85714 0,-4.76191 0,-9.52381 0,-14.28572 0,-0.95238 0,-1.90476 0,-2.85714 0,-0.95238 -0.95238,-2.85714 0,-2.85714 0.95238,0 0,3.80952 0,2.85714 0,-1.90476 -0.85184,-4.01062 0,-5.71429 0.42592,-0.85183 2.18371,-0.67343 2.85714,0 1.34687,1.34687 -1.34687,4.36742 0,5.71429 0.67344,0.67343 2.18371,-0.67344 2.85715,0 1.34687,1.34687 -0.85184,4.01061 0,5.71428 0.60233,1.20468 2.2548,1.65247 2.85714,2.85715 0.85183,1.70367 -1.34687,4.36741 0,5.71428 0.67343,0.67344 2.18371,-0.67343 2.85714,0 0.67344,0.67344 0,1.90477 0,2.85715 0,1.98725 -0.51662,13.25247 0,14.28571 0.60234,1.20468 2.25481,1.65247 2.85714,2.85714 0.98677,1.97353 -1.00291,13.28281 0,14.28572 0.67344,0.67343 2.18371,-0.67344 2.85715,0 1.42857,1.42857 -1.42857,7.14285 0,8.57143 0.67343,0.67343 1.90476,0 2.85714,0 0.95238,0 2.18371,0.67343 2.85714,0 0.78178,-0.78178 -0.77498,-9.87861 0,-11.42858 0.60234,-1.20467 2.25481,-1.65246 2.85715,-2.85714 0.36935,-0.73871 0,-15.11771 0,-17.14286 0,-2.85714 0,-5.71428 0,-8.57142 0,-0.95238 -0.95239,-2.85715 0,-2.85715 0.95238,0 0,1.90477 0,2.85715 0,3.80952 0,7.61904 0,11.42857 0,1.04924 -0.11498,11.31359 0,11.42857 0.67343,0.67343 2.1837,-0.67344 2.85714,0 0.67343,0.67343 -0.42592,2.00531 0,2.85714 0.60234,1.20468 2.2548,1.65247 2.85714,2.85714 0.85184,1.70368 -1.34687,4.36742 0,5.71429 0.67344,0.67344 1.90476,0 2.85714,0 0.95239,0 1.90477,0 2.85715,0 0.95238,0 1.90476,0 2.85714,0 0.95238,0 2.18371,0.67344 2.85714,0 0.58411,-0.5841 -0.56641,-7.43859 0,-8.57143 0.60234,-1.20468 2.25481,-1.65246 2.85715,-2.85714 0.37563,-0.75126 0,-9.93451 0,-11.42857 0,-1.04925 0.11497,-11.3136 0,-11.42857 -0.67344,-0.67344 -2.18371,-0.67344 -2.85715,0 -0.67343,0.67343 0,1.90476 0,2.85714 0,0.95238 0,1.90476 0,2.85714 0,7.61905 0,15.2381 0,22.85714 0,0.95239 0,1.90477 0,2.85715 0,0.95238 -0.67343,2.18371 0,2.85714 0.67344,0.67344 2.00531,-0.42592 2.85715,0 1.20467,0.60234 1.65246,2.2548 2.85714,2.85714 0.85183,0.42592 1.90476,0 2.85714,0 0.95238,0 2.18371,0.67344 2.85714,0 0.78178,-0.78177 -0.77498,-9.8786 0,-11.42857 0.60234,-1.20468 2.25481,-1.65246 2.85715,-2.85714 0.43476,-0.86953 0,-7.28469 0,-8.57143 0,-5.71429 0,-11.42857 0,-17.14286 0,-4.7619 0,-9.52381 0,-14.28571 0,-1.90476 -0.85184,-4.01062 0,-5.71429 0.42591,-0.85183 2.1837,0.67344 2.85714,0 0.78178,-0.78177 -0.77498,-9.8786 0,-11.42857 0.60234,-1.20468 2.2548,-1.65246 2.85714,-2.85714 0.43477,-0.86953 0,-7.28469 0,-8.57143 0,-1.49406 0.37563,-10.67731 0,-11.42857 -0.60234,-1.20468 -2.2548,-1.65247 -2.85714,-2.85714 -0.85184,-1.70367 0.85184,-4.01062 0,-5.71429 -0.60234,-1.20468 -2.2548,-1.65247 -2.85714,-2.85714 -0.85184,-1.70367 1.34687,-4.36742 0,-5.71429 -0.67344,-0.67343 -2.18371,0.67344 -2.85715,0 -1.34687,-1.34687 0.85184,-4.01061 0,-5.71428 -0.60233,-1.20468 -2.2548,-1.65247 -2.85714,-2.85715 -0.43476,-0.86952 0,-7.28469 0,-8.57143 0,-6.66666 0,-13.33333 0,-20 0,-22.85714 0,-45.71428 0,-68.57142 0,-37.14286 0,-74.28572 0,-111.42858 0,-9.5238 0,-19.04761 0,-28.57142 0,-3.80953 0,-7.61905 0,-11.42858 0,-0.95238 0,-1.90476 0,-2.85714 0,-0.95238 -0.95238,-2.85714 0,-2.85714 0.95238,0 0.95238,2.85714 0,2.85714 -1.34687,0 -1.65246,-2.2548 -2.85714,-2.85714 -0.75126,-0.37563 -9.93451,0 -11.42857,0 -7.61905,0 0.95238,-0.95238 -2.85715,2.85714 -0.67343,0.67344 -2.0053,-0.42592 -2.85714,0 -1.20468,0.60234 -1.65246,2.25481 -2.85714,2.85714 -0.85184,0.42592 -2.00531,-0.42591 -2.85714,0 -1.20468,0.60234 -1.65247,2.25481 -2.85715,2.85715 -0.85183,0.42592 -1.90476,0 -2.85714,0 -0.95238,0 -1.90476,0 -2.85714,0 -7.61905,0 0.95238,-0.95238 -2.85715,2.85714 -0.67343,0.67344 -1.90476,0 -2.85714,0 -1.98726,0 -13.25247,0.51662 -14.28571,0 -1.20468,-0.60234 -1.65247,-2.2548 -2.85715,-2.85714 -0.85183,-0.42592 -1.90476,0 -2.85714,0 -0.95238,0 -1.90476,0 -2.85714,0 -4.76191,0 -9.52381,0 -14.28572,0 -0.95238,0 -2.85714,0.95238 -2.85714,0 0,-0.95238 3.80953,0 2.85714,0 -1.90476,0 -4.01061,-0.85184 -5.71428,0 -0.28849,0.14424 0,8.29873 0,11.42857 0,10.47619 0,20.95238 0,31.42857 0,0.95238 0,1.90476 0,2.85714 0,0.95238 -0.67344,2.18371 0,2.85715 0.67343,0.67343 2.18371,-0.67344 2.85714,0 0.58411,0.5841 -0.56642,7.43859 0,8.57142 0.60234,1.20468 2.25481,1.65247 2.85714,2.85715 0.85184,1.70367 -0.85183,4.01061 0,5.71428 0.60234,1.20468 2.25481,1.65247 2.85715,2.85715 0.56641,1.13283 -0.58411,7.98732 0,8.57142 0.67343,0.67344 2.1837,-0.67343 2.85714,0 1.00291,1.00292 -0.98676,12.3122 0,14.28572 0.60234,1.20468 2.2548,1.65246 2.85714,2.85714 0.42592,0.85184 0,1.90476 0,2.85714 0,2.02515 -0.36936,16.40415 0,17.14286 0.60234,1.20468 2.25481,1.65247 2.85715,2.85714 0.51661,1.03324 0,12.29846 0,14.28572 0,10.47619 0,20.95238 0,31.42857 0,1.49406 -0.37563,10.67731 0,11.42857 0.60233,1.20468 2.2548,1.65247 2.85714,2.85714 0.36936,0.73872 0,15.11771 0,17.14286 0,0.95238 -0.67344,2.18371 0,2.85714 0.67343,0.67344 2.18371,-0.67343 2.85714,0 0.67344,0.67344 0,1.90477 0,2.85715 0,2.85714 0,5.71428 0,8.57143 0,19.04762 0,38.09523 0,57.14285 z"
       id="path4364"
       inkscape:connector-curvature="0" />
    <path
       style="fill:none;fill-rule:evenodd;stroke:#000000;stroke-width:1px;stroke-linecap:butt;stroke-linejoin:miter;stroke-opacity:1"
       d="m 385.71429,315.21935 c 4.7619,0 9.52381,0 14.28571,0 9.52381,0 19.04762,0 28.57143,0 3.80952,0 7.61905,0 11.42857,0 0.95238,0 1.90476,0 2.85714,0 0.95238,0 2.85715,-0.95238 2.85715,0 0,0.95238 -1.90477,0 -2.85715,0"
       id="path4378"
       inkscape:connector-curvature="0" />
    <path
       style="fill:none;fill-rule:evenodd;stroke:#000000;stroke-width:1px;stroke-linecap:butt;stroke-linejoin:miter;stroke-opacity:1"
       d="m 511.42857,318.07649 c 0.95238,-3.80952 1.90476,-7.61905 2.85714,-11.42857 0.95239,-0.95238 2.25481,-1.65247 2.85715,-2.85714 0.42591,-0.85184 -0.67344,-2.18371 0,-2.85715 0.67343,-0.67343 1.90476,0 2.85714,0 0.95238,0 1.90476,0 2.85714,0 1.98726,0 13.25248,-0.51662 14.28572,0 2.40935,1.20468 3.30493,4.50961 5.71428,5.71429 0.85184,0.42592 2.18371,-0.67344 2.85715,0 1.34687,1.34687 -0.85184,4.01061 0,5.71428 0.60233,1.20468 2.2548,1.65247 2.85714,2.85715 0.56642,1.13283 -0.58411,7.98732 0,8.57143 0.67343,0.67343 1.90476,0 2.85714,0"
       id="path4380"
       inkscape:connector-curvature="0" />
    <path
       style="fill:#ffdd55;stroke:#000000;stroke-width:2.85714293"
       d="m 447.86217,448.67682 c -58.51544,-8.08615 -92.45206,-36.97285 -104.7586,-89.17006 -9.28164,-39.36728 -3.65537,-55.60677 24.47017,-70.63004 38.47573,-20.55184 133.52656,-23.44679 187.25469,-5.70321 19.78915,6.53532 38.5755,21.11801 43.96372,34.12632 6.07191,14.65889 2.30817,56.67012 -6.73247,75.14852 -8.53508,17.44506 -24.38372,34.49348 -39.06394,42.02117 -25.36122,13.00465 -70.09293,19.0495 -105.13357,14.2073 z m 101.72669,-30.10109 c 4.6267,-3.24067 6.35001,-7.33197 6.35001,-15.07551 l 0,-10.62777 11.18715,1.06686 c 6.15294,0.58678 13.54579,-0.31498 16.42857,-2.0039 4.05543,-2.37594 2.30713,-2.69273 -7.72651,-1.40001 -17.67908,2.27773 -21.31778,-2.46882 -21.31778,-27.80822 0,-24.63665 -4.44854,-21.15588 -5.1483,4.02831 -0.61971,22.30301 0.0565,21.91047 -37.70884,21.89089 -24.4767,-0.0126 -77.50448,-6.05721 -87.8006,-10.0082 -2.65569,-1.01908 -10.49638,-7.52072 -17.42374,-14.44809 -6.92737,-6.92737 -14.28152,-12.59521 -16.34258,-12.59521 -2.06104,0 1.64239,4.61343 8.22987,10.25206 21.49793,18.40144 22.23089,27.35713 3.11813,38.0991 -12.01948,6.75533 -13.93413,11.88398 -2.16864,5.809 9.66522,-4.99052 19.53042,-14.55946 19.53042,-18.94391 0,-5.86517 3.74778,-4.75915 31.67556,9.34781 49.32184,24.9136 84.26849,32.81728 99.11728,22.41679 z m 0.55631,-101.54347 c -3.92021,-13.66899 -8.01423,-16.86595 -21.59847,-16.86595 -12.97807,0 -18.59223,5.04051 -18.08904,16.24074 0.1504,3.34759 1.67354,1.89397 4.2939,-4.09788 3.45046,-7.88997 5.53837,-9.28572 13.89064,-9.28572 10.41054,0 18.72524,7.89435 18.72524,17.77859 0,2.79321 1.19597,5.07856 2.6577,5.07856 1.613,0 1.66018,-3.47815 0.12003,-8.84834 z m -117.77773,-1.83449 c -9.03571,-0.567 -23.82142,-0.567 -32.85714,0 -9.03571,0.567 -1.64286,1.03091 16.42857,1.03091 18.07143,0 25.46429,-0.46391 16.42857,-1.03091 z"
       id="path4382"
       inkscape:connector-curvature="0" />
    <path
       style="fill:#ffe680;fill-rule:evenodd;stroke:#000000;stroke-width:1px;stroke-linecap:butt;stroke-linejoin:miter;stroke-opacity:1"
       d="m 517.14286,418.07649 c 9.78402,2.98461 8.8313,-8.70137 14.28571,-11.42857 0.85184,-0.42592 2.18371,0.67343 2.85714,0 0.67344,-0.67344 -0.42591,-2.00531 0,-2.85714 5.94538,-11.89075 -0.19724,3.05438 5.71429,-2.85715 0.67344,-0.67343 -0.67344,-2.1837 0,-2.85714 0.67344,-0.67343 2.00531,0.42592 2.85714,0 1.20468,-0.60234 1.65247,-2.2548 2.85715,-2.85714 0.86952,-0.43477 7.28469,0 8.57142,0"
       id="path4384"
       inkscape:connector-curvature="0" />
    <path
       style="fill:#ffe680;stroke:#000000;stroke-width:2.85714293"
       d="m 446.99595,445.74372 c -51.26689,-7.74186 -83.61344,-33.05795 -98.39111,-77.00598 -7.44882,-22.15243 -7.29228,-51.4737 0.32939,-61.69532 16.47529,-22.09545 66.97071,-34.25708 131.29036,-31.62079 59.45791,2.43702 86.73205,10.5347 107.14285,31.81068 9.97483,10.39763 9.99966,10.48996 9.86414,36.67893 -0.1214,23.46023 -6.20284,54.28047 -9.04346,45.83159 -0.68884,-2.04878 -5.11758,-2.74215 -11.79466,-1.84656 -14.22685,1.90822 -17.87262,-2.96055 -19.75238,-26.37849 -1.87843,-23.40123 -7.28264,-23.22574 -9.28487,0.3015 -0.7919,9.30515 -2.47492,18.5256 -3.74005,20.48989 -2.84874,4.42305 -38.44494,4.72375 -74.82014,0.63204 -40.79477,-4.58885 -43.0857,-5.35995 -60.06294,-20.21635 -8.79113,-7.69292 -17.19477,-13.98712 -18.67475,-13.98712 -6.05412,0 -1.95264,7.94271 10.16626,19.68744 7.07143,6.8531 12.85714,14.20873 12.85714,16.34583 0,2.13711 -5.14286,7.28903 -11.42857,11.44872 -6.28572,4.15969 -11.42857,9.32079 -11.42857,11.46911 0,2.14832 0.7067,3.90604 1.57045,3.90604 4.6864,0 18.67374,-9.46532 24.87104,-16.83038 l 7.12215,-8.4642 32.50389,15.38673 c 36.93039,17.48214 67.71226,25.99643 83.36745,23.0595 11.19558,-2.1003 19.13645,-10.63133 19.13645,-20.55866 0,-5.19862 2.07242,-6.3708 13.57142,-7.67612 7.46429,-0.84731 13.87633,-1.24534 14.24899,-0.8845 2.06339,1.99797 -17.90669,24.81171 -27.59788,31.5277 -21.29741,14.75911 -76.60651,23.93697 -112.0226,18.58877 z M 553.08173,320.03644 c 0,-12.24795 -11.13802,-22.72727 -24.15584,-22.72727 -11.40518,0 -21.55845,8.07368 -21.55845,17.14285 0,7.81803 4.62606,7.17408 10.26274,-1.42857 2.5741,-3.92857 7.32393,-7.14285 10.55518,-7.14285 7.31437,0 16.32494,7.86659 16.32494,14.25234 0,2.6374 0.85714,5.65242 1.90476,6.70004 4.11312,4.11312 6.66667,1.50983 6.66667,-6.79654 z m -118.82152,-1.59809 c 9.34961,-3.58778 0.63347,-6.84347 -18.32134,-6.84347 -18.23652,0 -27.72215,3.2792 -19.30351,6.67326 5.17254,2.08537 32.31406,2.20816 37.62485,0.1702 z"
       id="path4386"
       inkscape:connector-curvature="0" />
    <path
       style="fill:none;fill-rule:evenodd;stroke:#000000;stroke-width:1px;stroke-linecap:butt;stroke-linejoin:miter;stroke-opacity:1"
       d="m 251.42857,618.07649 c 0,4.92531 2.69374,11.51027 -2.85714,14.28571 -0.85184,0.42592 -2.18371,-0.67343 -2.85714,0 -0.67344,0.67344 0.67343,2.18371 0,2.85715 -0.67344,0.67343 -2.18371,-0.67344 -2.85715,0 -0.67343,0.67343 0.67344,2.18371 0,2.85714 -0.5841,0.5841 -7.43859,-0.56642 -8.57143,0 -1.20467,0.60234 -1.65246,2.2548 -2.85714,2.85714 -0.14947,0.0747 -8.42195,0.0747 -8.57143,0 -5.77851,-2.88926 -0.91621,-6.63049 -2.85714,-8.57143 -0.67344,-0.67343 -2.18371,0.67344 -2.85714,0 -0.58411,-0.5841 0.56641,-7.43859 0,-8.57142 -0.60234,-1.20468 -2.25481,-1.65247 -2.85715,-2.85715 -0.42591,-0.85183 0.42592,-2.0053 0,-2.85714 -0.60233,-1.20468 -2.2548,-1.65247 -2.85714,-2.85714 -1.14286,-2.28572 1.14286,-6.28572 0,-8.57143 -0.60234,-1.20468 -2.2548,-1.65247 -2.85714,-2.85714 -0.85184,-1.70367 1.34687,-4.36742 0,-5.71429 -0.67344,-0.67343 -2.18371,0.67344 -2.85714,0 -0.58411,-0.5841 0.56641,-7.43859 0,-8.57143 -5.94538,-11.89074 0.19724,3.05439 -5.71429,-2.85714 -0.67344,-0.67344 0,-1.90476 0,-2.85714 0,-1.04925 -0.11498,-11.3136 0,-11.42858 0.67344,-0.67343 2.18371,0.67344 2.85714,0 0.67344,-0.67343 -0.67343,-2.1837 0,-2.85714 0.67344,-0.67343 1.90476,0 2.85715,0 0,-0.95238 -0.42592,-2.00531 0,-2.85714 5.94537,-11.89075 -0.19725,3.05439 5.71428,-2.85714 0.67344,-0.67344 -0.67343,-2.18371 0,-2.85715 0.67344,-0.67343 2.18371,0.67344 2.85714,0 0.67344,-0.67343 -0.67343,-2.1837 0,-2.85714 0.67344,-0.67343 1.90477,0 2.85715,0 0,-0.95238 -0.67344,-2.18371 0,-2.85714 0.67343,-0.67344 2.1837,0.67343 2.85714,0 0.96349,-0.96349 -0.96349,-4.7508 0,-5.71429 0.67344,-0.67343 2.18371,0.67344 2.85714,0 1.34687,-1.34687 -0.85183,-4.01061 0,-5.71428 0.60234,-1.20468 2.25481,-1.65247 2.85715,-2.85715 0.42591,-0.85183 -0.42592,-2.0053 0,-2.85714 0.60233,-1.20468 2.2548,-1.65247 2.85714,-2.85714 0.42592,-0.85184 -0.42592,-2.00531 0,-2.85715 0.60234,-1.20467 2.2548,-1.65246 2.85714,-2.85714 1.97051,-3.94102 -3.46016,-2.55563 2.85714,-5.71428 0.85184,-0.42592 2.18371,0.67343 2.85715,0 1.42857,-1.42858 -1.42857,-7.14286 0,-8.57143 0.67343,-0.67344 2.1837,0.67343 2.85714,0 1.34687,-1.34687 -0.85184,-4.01062 0,-5.71429 0.60234,-1.20468 2.2548,-1.65246 2.85714,-2.85714 0.42592,-0.85184 -0.67343,-2.18371 0,-2.85714 0.67344,-0.67344 2.18371,0.67343 2.85715,0 0.67343,-0.67344 -0.67344,-2.18371 0,-2.85715 0.67343,-0.67343 2.0053,0.42592 2.85714,0 6.3173,-3.15865 0.88663,-1.77326 2.85714,-5.71428 5.94537,-11.89075 -0.19724,3.05438 5.71429,-2.85715 0.67343,-0.67343 -0.67344,-2.1837 0,-2.85714 0.67343,-0.67343 2.1837,0.67344 2.85714,0 0.67344,-0.67343 -0.67344,-2.18371 0,-2.85714 0.67344,-0.67344 2.18371,0.67343 2.85714,0 0.67344,-0.67344 -0.42591,-2.00531 0,-2.85714 0.60234,-1.20468 2.25481,-1.65247 2.85715,-2.85715 0.42591,-0.85183 -0.67344,-2.1837 0,-2.85714 0.67343,-0.67343 2.1837,0.67344 2.85714,0 0.67343,-0.67343 -0.67344,-2.18371 0,-2.85714 0.67343,-0.67344 2.43122,0.85183 2.85714,0 0.85184,-1.70367 -0.85183,-4.01062 0,-5.71429 0.42592,-0.85183 2.18371,0.67344 2.85714,0 0.67344,-0.67343 -0.67343,-2.18371 0,-2.85714 0.67344,-0.67344 2.18371,0.67343 2.85715,0 0.67343,-0.67344 -0.95238,-2.85714 0,-2.85714 0.95238,0 0,1.90476 0,2.85714 0,3.80952 0,7.61905 0,11.42857 0,7.61905 0.95238,-0.95238 -2.85715,2.85714 -1.34687,1.34687 0.85184,4.01062 0,5.71429 -0.60233,1.20468 -2.2548,1.65246 -2.85714,2.85714 -1.14286,2.28572 1.14286,6.28572 0,8.57143 -0.60234,1.20468 -2.2548,1.65247 -2.85714,2.85714 -0.85184,1.70367 1.34687,4.36742 0,5.71429 -0.67344,0.67343 -2.18371,-0.67344 -2.85714,0 -0.67344,0.67343 0,1.90476 0,2.85714 0,4.76191 0,9.52381 0,14.28572 0,0.95238 0.67343,2.1837 0,2.85714 -0.67344,0.67343 -2.18371,-0.67344 -2.85715,0 -1.34687,1.34687 0.85184,4.01061 0,5.71428 -0.60234,1.20468 -2.2548,1.65247 -2.85714,2.85715 -0.42592,0.85183 0.42592,2.00531 0,2.85714 -1.20468,2.40935 -4.50961,3.30493 -5.71429,5.71429 -0.85183,1.70367 0.85184,4.01061 0,5.71428 -0.60233,1.20468 -2.2548,1.65247 -2.85714,2.85714 -0.42592,0.85184 0,1.90477 0,2.85715 0,0.95238 0,1.90476 0,2.85714 0,6.66667 0,13.33333 0,20 0,1.28674 0.43476,7.7019 0,8.57143 -0.60234,1.20468 -2.2548,1.65246 -2.85714,2.85714 -0.42592,0.85184 0,1.90476 0,2.85714 0,0.95239 0,1.90477 0,2.85715 0,3.33914 -0.63531,8.25203 0,11.42857 0.7701,3.85051 1.90476,7.61905 2.85714,11.42857 z"
       id="path4388"
       inkscape:connector-curvature="0" />
    <path
       style="fill:#ff5555;fill-rule:evenodd;stroke:#000000;stroke-width:1px;stroke-linecap:butt;stroke-linejoin:miter;stroke-opacity:1"
       d="m 520,418.07649 c 0.13033,-0.26066 4.65887,-12.32944 8.57143,-14.28571 0.85183,-0.42592 2.18371,0.67343 2.85714,0 0.67344,-0.67344 -0.67343,-2.18371 0,-2.85715 0.67344,-0.67343 2.00531,0.42592 2.85714,0 1.20468,-0.60234 1.57939,-2.43122 2.85715,-2.85714 1.80701,-0.60234 4.01061,0.85184 5.71428,0 0.85184,-0.42592 -0.67343,-2.18371 0,-2.85714 0.67344,-0.67344 1.90476,0 2.85715,0 0.95238,0 3.80952,0 2.85714,0 -1.90476,0 -7.61905,0 -5.71429,0 2.85715,0 5.71429,0 8.57143,0 0.95238,0 1.90476,0 2.85714,0 0.95239,0 2.18371,-0.67344 2.85715,0 0.67343,0.67343 0,1.90476 0,2.85714 0,0.95238 0.95238,2.85714 0,2.85714 -0.95238,0 0,-3.80952 0,-2.85714 0,1.90476 0,3.80952 0,5.71429 0,1.90476 0,3.80952 0,5.71428 0,0.95238 0.95238,2.85714 0,2.85714 -0.95238,0 0,-3.80952 0,-2.85714 0,1.90476 0,3.80953 0,5.71429 0,0.95238 0.67343,2.18371 0,2.85714 -0.67344,0.67344 -2.18371,-0.67343 -2.85715,0 -0.67343,0.67344 0.67344,2.18371 0,2.85714 -1.34687,1.34687 -4.01061,-0.85183 -5.71428,0 -1.20468,0.60234 -1.65247,2.25481 -2.85714,2.85715 -0.85184,0.42591 -1.90477,0 -2.85715,0 -0.95238,0 -1.90476,0 -2.85714,0 -10.80552,0 -6.98632,0.79255 -20,-5.71429 z"
       id="path4394"
       inkscape:connector-curvature="0" />
    <path
       style="fill:#ff5555;stroke:#000000;stroke-width:2.85714293"
       d="m 491.65316,410.4123 c -23.28191,-8.96234 -50.94981,-21.70487 -49.64087,-22.86223 0.58819,-0.52008 10.06944,0.21249 21.06944,1.62794 25.3685,3.26433 75.14429,4.02214 83.57143,1.27233 3.64682,-1.18997 6.42857,-0.91562 6.42857,0.63403 0,1.50244 -4.72997,3.61906 -10.51105,4.70359 -6.33128,1.18776 -14.39801,5.85884 -20.28572,11.74655 -5.37606,5.37606 -10.61037,9.70767 -11.6318,9.62579 -1.02143,-0.0819 -9.57143,-3.11848 -19,-6.748 z"
       id="path4396"
       inkscape:connector-curvature="0" />
    <path
       style="fill:#0000ff;fill-rule:evenodd;stroke:#000000;stroke-width:1px;stroke-linecap:butt;stroke-linejoin:miter;stroke-opacity:1"
       d="m 288.57143,963.79078 -2.85714,91.42852 102.85714,-2.8571 28.57143,-42.8571 151.42857,0 11.42857,42.8571 77.14286,-2.8571 -8.57143,-82.85718 z"
       id="path4830"
       inkscape:connector-curvature="0" />
    <path
       style="fill:#ffffff;fill-rule:evenodd;stroke:#000000;stroke-width:1px;stroke-linecap:butt;stroke-linejoin:miter;stroke-opacity:1"
       d="m 282.85714,423.79078 5.71429,37.14285 c 0,0 42.85714,37.14286 182.85714,25.71429 140,-11.42857 171.42857,-20 171.42857,-20 l -114.28571,-17.14286 -40,5.71429 -42.85714,0 -51.42858,-14.28572 z"
       id="path5083"
       inkscape:connector-curvature="0" />
    <path
       style="fill:#ffffff;fill-rule:evenodd;stroke:#000000;stroke-width:1px;stroke-linecap:butt;stroke-linejoin:miter;stroke-opacity:1"
       d="m 585.71429,232.3622 c 0,0 8.57142,-68.57142 34.28571,-54.28571 25.71429,14.28571 -34.28571,54.28571 -34.28571,54.28571 z"
       id="path5087"
       inkscape:connector-curvature="0" />
  </g>
</svg>
